<?xml version="1.0" encoding="UTF-8" standalone="no"?>
<!-- Created with Inkscape (http://www.inkscape.org/) -->

<svg
   xmlns:dc="http://purl.org/dc/elements/1.1/"
   xmlns:cc="http://creativecommons.org/ns#"
   xmlns:rdf="http://www.w3.org/1999/02/22-rdf-syntax-ns#"
   xmlns:svg="http://www.w3.org/2000/svg"
   xmlns="http://www.w3.org/2000/svg"
   xmlns:sodipodi="http://sodipodi.sourceforge.net/DTD/sodipodi-0.dtd"
   xmlns:inkscape="http://www.inkscape.org/namespaces/inkscape"
   version="1.1"
   id="svg2"
   width="16"
   height="16"
   viewBox="0 0 15.999999 16"
   sodipodi:docname="GRO_tab-icon.svg"
   inkscape:version="0.92.2 (5c3e80d, 2017-08-06)"
   inkscape:export-filename="C:\Users\Vince2\Desktop\virtualenv\GRO_Aggregator\GRO_Aggregator_Django\gro_aggregator\homepage\static\images\homepage\GRO_tab-icon.png"
   inkscape:export-xdpi="96"
   inkscape:export-ydpi="96">
  <metadata
     id="metadata8">
    <rdf:RDF>
      <cc:Work
         rdf:about="">
        <dc:format>image/svg+xml</dc:format>
        <dc:type
           rdf:resource="http://purl.org/dc/dcmitype/StillImage" />
        <dc:title />
      </cc:Work>
    </rdf:RDF>
  </metadata>
  <defs
     id="defs6">
    <clipPath
       clipPathUnits="userSpaceOnUse"
       id="clipPath832">
      <rect
         style="opacity:1;fill:#ff0c15;fill-opacity:1;fill-rule:evenodd;stroke:#9505ee;stroke-width:2;stroke-miterlimit:4;stroke-dasharray:none;stroke-dashoffset:0;stroke-opacity:1"
         id="rect834"
         width="167.4897"
         height="199.13521"
         x="8.8044806"
         y="-103.62628" />
    </clipPath>
  </defs>
  <sodipodi:namedview
     pagecolor="#ffffff"
     bordercolor="#666666"
     borderopacity="1"
     objecttolerance="10"
     gridtolerance="10"
     guidetolerance="10"
     inkscape:pageopacity="0"
     inkscape:pageshadow="2"
     inkscape:window-width="1280"
     inkscape:window-height="657"
     id="namedview4"
     showgrid="false"
     inkscape:zoom="0.64780106"
     inkscape:cx="-487.93717"
     inkscape:cy="341.34137"
     inkscape:window-x="-8"
     inkscape:window-y="-8"
     inkscape:window-maximized="1"
     inkscape:current-layer="svg2"
     inkscape:pagecheckerboard="false"
     fit-margin-top="0"
     fit-margin-left="0"
     fit-margin-right="0"
     fit-margin-bottom="0" />
  <g
     id="g4508"
     transform="matrix(0.0964169,0,0,0.08039207,-0.99773788,8.3218395)"
     clip-path="url(#clipPath832)">
    <path
       style="fill:#f5a0a3"
       d="m 318.91264,284.54896 c -9.8774,-4.0503 -29.03329,-22.00237 -37.54348,-35.18412 -5.9561,-9.22565 -10.95603,-20.91828 -13.70661,-32.05376 -3.09509,-12.5302 -2.86602,-32.01441 0.5292,-45.01148 4.94641,-18.93512 14.18509,-34.51644 28.51619,-48.09341 24.81888,-23.51288 58.43712,-32.58319 92.01168,-24.82506 34.98544,8.08415 63.30365,35.13954 73.71731,70.42995 3.61794,12.26068 4.50672,31.29577 2.03283,43.53718 -2.29676,11.36488 -8.0196,24.92924 -14.84662,35.18961 -9.55841,14.3654 -27.46973,30.74053 -39.05743,35.7076 l -4.45213,1.9084 -1.96464,-2.17139 c -3.48052,-3.8468 -14.2363,-20.54549 -14.2363,-22.10231 0,-0.8292 2.5875,-3.15121 5.75,-5.16003 25.25558,-16.04235 38.43157,-36.77597 38.3893,-60.40906 -0.0205,-11.47448 -1.77831,-18.68008 -7.31541,-29.9876 -7.06751,-14.43281 -22.26403,-27.79059 -38.19448,-33.57303 -18.50021,-6.71522 -38.28264,-4.89192 -56.52907,5.21014 -9.13593,5.05807 -21.54607,17.77709 -26.3931,27.05001 -16.8804,32.29415 -5.72559,68.42377 28.0998,91.01317 5.85676,3.91128 8.13694,5.99092 7.73035,7.05048 -0.8214,2.14052 -15.73801,20.81778 -17.53739,21.95876 -0.99959,0.63384 -2.66763,0.47235 -5,-0.48405 z m -112.52957,-3.46238 c -0.2675,-0.70152 -0.37028,-42.6755 -0.2284,-93.2755 l 0.25797,-92 h 16 16 v 93 93 l -15.7716,0.2755 c -12.06826,0.21081 -15.8858,-0.024 -16.25797,-1 z m 127.19624,0.55783 c -1.20197,-1.20197 -0.74183,-1.98906 6.33333,-10.83333 3.85,-4.81267 6.99893,-9.2565 6.99762,-9.87516 -10e-4,-0.61866 -2.495,-2.42729 -5.54154,-4.01918 -7.76776,-4.05884 -17.34305,-11.51308 -22.84059,-17.78111 l -4.67004,-5.32455 0.27727,-9 0.27728,-9 10.41321,-0.28679 c 6.5145,-0.17941 10.82011,0.11844 11.5,0.79554 0.59774,0.59527 1.31179,6.34932 1.58679,12.78678 0.4644,10.87114 0.6424,11.70447 2.5,11.70447 1.9359,0 2.00831,-0.75313 2.25938,-23.5 0.2281,-20.66509 0.46226,-23.65079 1.94113,-24.75 1.86787,-1.38834 18.96868,-1.7472 21.02437,-0.44119 0.86907,0.55213 1.30481,5.70389 1.5,17.73469 0.26282,16.19813 0.36457,16.9565 2.27512,16.9565 1.88945,0 2.01537,-0.75938 2.27814,-13.73801 0.27696,-13.6796 0.28865,-13.74065 2.75,-14.35841 1.35952,-0.34122 3.59686,-0.33804 4.97186,0.007 2.43012,0.60993 2.5,0.87383 2.5,9.44175 0,4.84785 0.25347,9.06775 0.56326,9.37754 0.3098,0.3098 1.7723,0.24026 3.25,-0.15452 l 2.68674,-0.71772 0.5,-27.42881 0.5,-27.42882 h 15.39208 15.39208 l 2.10792,2.82047 c 1.93437,2.58826 2.13135,4.3172 2.39252,21 0.25236,16.12032 0.52243,18.65588 2.38426,22.38489 l 2.09966,4.20537 -2.25863,5.5649 c -5.08027,12.51699 -19.52222,28.53274 -32.14406,35.64693 -9.29531,5.23922 -10.56861,6.41825 -9.24685,8.56231 0.61544,0.99832 3.47177,5.49969 6.34739,10.00304 2.87563,4.50335 4.93303,8.66585 4.572,9.25 -0.7285,1.17874 -61.70488,1.56225 -62.8717,0.39542 z m 90.80852,-0.37347 c -0.35356,-0.57208 0.63238,-2.01826 2.19098,-3.21373 1.55861,-1.19547 5.91502,-5.11491 9.68091,-8.70986 13.37513,-12.768 22.02705,-26.47437 28.32622,-44.87443 4.10451,-11.9894 4.32833,-13.22959 4.3585,-24.15013 0.0236,-8.53439 0.41153,-12.01375 1.5,-13.45284 0.80751,-1.06762 1.4682,-2.68538 1.4682,-3.59501 0,-0.90964 0.9,-2.46837 2,-3.46386 1.41195,-1.2778 2,-3.07997 2,-6.12931 0,-3.78784 0.36915,-4.51022 3,-5.87069 l 3,-1.55136 v -13.86733 c 0,-15.80786 -0.43408,-15.08131 9.01036,-15.08131 8.92876,0 8.98964,0.13253 8.98964,19.57143 0,13.93651 0.22754,16.42857 1.5,16.42857 1.27439,0 1.5,-2.55165 1.5,-16.96482 0,-19.7009 -0.36206,-19.03518 10.35247,-19.03518 10.34473,0 9.64753,-1.42053 9.64753,19.65665 0,19.59904 0.77859,23.52918 4.87347,24.60001 1.52776,0.39952 2.10688,1.7379 2.65693,6.14032 0.38684,3.0962 1.10076,5.87506 1.58647,6.17525 0.48883,0.30211 0.88313,19.87274 0.88313,43.83311 v 43.28731 l -12.157,0.65367 c -20.31989,1.09259 -95.64038,0.79054 -96.36781,-0.38646 z m 145.76856,-76.20986 0.25625,-76.25 2.68274,-0.30993 c 1.88992,-0.21834 3.00854,0.29883 3.78519,1.75 0.91014,1.70062 2.07199,2.05993 6.66087,2.05993 4.78589,0 5.63392,0.28864 6.10151,2.07672 0.2987,1.1422 1.60657,2.48106 2.90638,2.97525 l 2.36331,0.89853 v 27.59049 c 0,18.47578 0.37164,28.31208 1.12496,29.77475 1.4275,2.77167 4.96845,6.68426 6.04935,6.68426 0.45413,0 0.82569,-14.87958 0.82569,-33.06574 0,-20.88071 0.38147,-33.77854 1.03518,-35 0.86685,-1.61971 2.13528,-1.93426 7.8,-1.93426 3.92819,0 7.268,0.50318 7.96482,1.2 0.88315,0.88315 1.2,9.61852 1.2,33.08333 0,25.06119 0.26747,31.7946 1.25,31.46861 0.6875,-0.2281 1.50008,-2.25166 1.80573,-4.49679 0.30565,-2.24513 1.08613,-4.72115 1.73439,-5.50226 0.83062,-1.00083 1.25709,-9.95606 1.44427,-30.32709 l 0.26561,-28.9069 3,-0.51825 3,-0.51825 0.27598,-15.85743 c 0.2961,-17.01299 -0.0956,-18.62497 -4.52573,-18.62497 h -2.50486 l 0.71395,-22.25 c 0.52815,-16.45924 1.0818,-22.82643 2.12731,-24.46482 0.77734,-1.21815 1.41335,-3.59477 1.41335,-5.28138 0,-1.80335 0.6179,-3.30368 1.5,-3.64217 0.825,-0.31659 1.5,-1.13272 1.5,-1.81363 0,-0.68091 0.9,-2.05251 2,-3.048 1.1,-0.99549 2,-2.30698 2,-2.91444 0,-0.60746 0.9,-1.66653 2,-2.35349 1.85471,-1.15828 2,-2.33202 2,-16.15714 V -3.52211 l 2.66377,-1.94042 c 1.88147,-1.37056 2.8726,-3.23057 3.37484,-6.33341 l 0.71106,-4.39298 0.12516,4.59501 c 0.0875,3.21144 0.72738,5.14001 2.12517,6.40499 1.81552,1.64302 2,3.07997 2,15.57826 0,13.22722 0.0983,13.88505 2.5,16.73937 1.375,1.6341 2.5,3.29136 2.5,3.68282 0,0.39146 1.35,2.41626 3,4.49955 2.08928,2.63794 3,4.89205 3,7.42529 0,2.31082 0.54708,3.84741 1.5,4.21308 1.19927,0.46021 1.5,2.64494 1.5,10.89719 0,7.84141 0.36044,10.68202 1.5,11.82158 1.14873,1.14874 1.5,4.03715 1.5,12.3343 0,10.27642 -0.11586,10.88513 -2.25,11.82143 l -2.25,0.98713 -0.25515,93.25 -0.25516,93.25 h -47.50109 -47.50109 z m 241.2352,75 c -0.25205,-0.6875 -0.57543,-7.775 -0.71861,-15.75 l -0.26034,-14.5 -53.5,-0.25185 c -48.88221,-0.23011 -53.60789,-0.39766 -54.75,-1.94113 -1.86141,-2.51555 -1.81118,-109.1573 0.0526,-111.70619 2.34364,-3.20511 3.60013,0.3164 3.90884,10.95518 l 0.28856,9.94399 6,0.5 6,0.5 0.29377,7.8448 c 0.32219,8.60359 -0.42614,10.36151 -4.61695,10.84584 l -2.67682,0.30936 v 16.5 16.5 l 18.32232,0.5 c 16.42857,0.44832 18.42823,0.68961 19.34697,2.33448 0.9806,1.75562 1.10813,1.74487 2.96663,-0.25 2.19345,-2.35439 3.16875,-2.52698 5.92982,-1.0493 1.35441,0.72486 1.93426,2.09884 1.93426,4.58334 0,4.62518 2.37166,4.04989 2.83135,-0.68679 0.18225,-1.87784 0.85725,-3.74879 1.5,-4.15768 0.64276,-0.40888 10.96703,-0.75032 22.94283,-0.75874 l 21.77418,-0.0153 -0.27418,-16.75 -0.27418,-16.75 -11.48902,-0.5 c -9.56935,-0.41646 -11.54098,-0.77212 -11.79995,-2.12862 -0.36389,-1.90606 2.29634,-4.87138 4.37019,-4.87138 0.79109,0 2.20896,0.9 3.15081,2 1.36859,1.5984 2.94994,2 7.8752,2 5.50936,0 6.34067,-0.27154 7.84089,-2.56117 0.94774,-1.44643 2.41234,-2.42095 3.36501,-2.23902 1.4301,0.27311 1.76298,2.07099 2.18687,11.81117 0.48149,11.06379 0.58531,11.50111 2.80504,11.81578 2.78602,0.39495 5.19496,-1.40896 5.19496,-3.89019 0,-2.1463 2.20542,-3.8203 2.77639,-2.10739 0.21694,0.6508 0.806,0.92892 1.30902,0.61803 0.50302,-0.31088 0.91459,-4.79785 0.91459,-9.97104 0,-8.30254 0.22877,-9.52824 1.95035,-10.4496 1.5212,-0.81412 2.01629,-2.30714 2.25,-6.78518 l 0.29965,-5.74139 h 7 c 8.04552,0 7.91495,-0.25507 5.11733,9.99684 -5.85536,21.45698 -3.76229,44.91064 5.8116,65.12132 5.47907,11.56643 9.06142,16.78654 17.91938,26.11168 7.92008,8.33777 19.64053,16.556 30.98325,21.72504 4.21764,1.92205 7.66844,3.73099 7.66844,4.01987 0,0.28889 -21.16412,0.52525 -47.03138,0.52525 -36.71403,0 -47.13192,-0.27421 -47.48967,-1.25 z m 106.14487,-0.32818 c -29.46485,-6.57326 -52.49099,-25.04707 -65.63952,-52.66241 -21.65536,-45.48188 -1.42693,-100.2288 45.149,-122.19279 32.74711,-15.44268 67.99874,-10.99619 96.97856,12.23247 12.0758,9.67931 27.8881,30.41335 27.8881,36.56852 0,1.71803 -19.9453,15.63239 -22.40796,15.63239 -0.8111,0 -2.85955,-2.5875 -4.55212,-5.75 -1.69257,-3.1625 -5.65646,-8.76851 -8.80864,-12.45781 -19.42822,-22.73867 -43.97588,-30.63409 -69.06217,-22.2129 -17.07979,5.73349 -29.26385,16.61928 -37.67231,33.65814 -11.82538,23.96285 -7.01861,50.96103 12.59284,70.73021 17.77083,17.91376 45.05934,23.35568 67.58538,13.478 11.54078,-5.06063 24.94947,-16.36809 32.36138,-27.29013 1.905,-2.80717 4.14753,-5.11554 4.98344,-5.12972 2.1302,-0.0361 19.98016,18.11643 19.98016,20.31896 0,4.46982 -18.21286,23.73341 -29.87807,31.60167 -7.91229,5.33692 -18.58609,10.27043 -27.12189,12.53596 -9.22552,2.44858 -33.22636,2.98066 -42.37618,0.93944 z m 50.37618,0.81121 c 0,-0.43339 2.87498,-2.04046 6.38885,-3.57127 15.03456,-6.54976 32.73731,-21.318 42.99711,-35.86964 3.7337,-5.29554 4.524,-7.08522 3.7538,-8.5 -1.3337,-2.44998 -23.60986,-24.29944 -24.73621,-24.26241 -0.49695,0.0163 -3.15355,3.42782 -5.90355,7.58108 -9.24034,13.95544 -23.87024,25.52192 -38.5,30.4383 -8.27749,2.78168 -21.8523,3.00296 -30.52501,0.49758 -13.79849,-3.98611 -27.43959,-13.76007 -34.90821,-25.01203 -1.96173,-2.95546 -3.56678,-5.81167 -3.56678,-6.34712 0,-1.98833 3.09705,-2.09704 4.74983,-0.16672 3.45699,4.03746 4.17013,2.55754 4.46742,-9.2708 l 0.28275,-11.25 3.5,-1.12909 3.5,-1.12909 0.5,-14.37091 0.5,-14.37091 9.67961,-0.28536 9.67962,-0.28537 2.57038,5.11753 c 1.43232,2.85168 2.57039,6.82606 2.57039,8.97634 0,4.48523 1.41248,5.81853 3.83833,3.62317 1.14537,-1.03654 4.18718,-1.6484 9.18699,-1.84797 l 7.47468,-0.29834 0.76666,-9 c 0.42166,-4.95 1.09666,-13.275 1.5,-18.5 l 0.73334,-9.5 3.81979,-0.31453 c 5.86166,-0.48265 6.68021,0.79926 6.68021,10.46173 0,8.02944 0.11031,8.44424 2.48571,9.34737 l 2.48571,0.94506 0.26429,31.28019 0.26429,31.28018 2.25,0.31955 c 2.06953,0.29392 2.25,-0.0718 2.25,-4.55887 0,-2.74133 0.64317,-5.72877 1.4682,-6.81955 1.10734,-1.46404 1.47601,-5.06029 1.5,-14.63211 0.0175,-6.98004 0.42719,-12.93535 0.91045,-13.23402 0.48326,-0.29867 1.06829,-3.16466 1.30006,-6.36885 0.34546,-4.77601 1.03344,-6.58742 3.81787,-10.05227 2.93507,-3.65231 3.77732,-4.14281 6.19995,-3.61072 2.59768,0.57055 2.80347,0.3897 2.80347,-2.4637 0,-1.90843 0.50997,-3.07946 1.34107,-3.07946 1.17432,0 5.82167,7.22549 7.87671,12.24634 1.08452,2.6498 2.61352,2.19358 10.71258,-3.1964 4.0867,-2.71974 7.7992,-4.71704 8.25,-4.43845 0.4508,0.2786 0.8196,2.74411 0.8196,5.47891 0,5.54537 1.1075,6.57962 5.3276,4.97516 2.5726,-0.97811 2.6724,-1.29954 2.6724,-8.60655 0,-4.17477 0.5006,-8.52586 1.1124,-9.66908 0.7992,-1.49333 0.8135,-3.09382 0.051,-5.68426 -0.6075,-2.06319 -1.2915,-18.56208 -1.5989,-38.56746 l -0.5371,-34.96178 5.2364,-4.92052 c 2.88,-2.70628 7.6189,-6.95775 10.5309,-9.4477 l 5.2945,-4.5272 4.0713,3.9095 c 2.2392,2.15022 6.2691,6.52035 8.9555,9.71141 4.7032,5.58686 4.8836,6.03165 4.8689,12 -0.017,6.89967 -0.5657,8.29243 -3.4847,8.84601 -1.9788,0.37527 -2.0053,1.37168 -2.5,93.86568 l -0.5,93.48639 -43.75,0.26051 c -24.06266,0.14328 -43.75016,-0.0941 -43.75016,-0.52748 z m 124.70626,0.13993 c -0.3885,-0.38846 -0.7063,-13.66546 -0.7063,-29.50444 0,-27.25111 0.1019,-28.85268 1.8966,-29.81316 2.2489,-1.20362 2.8882,-7.47223 3.9319,-38.55536 l 0.6715,-20 7.9796,-0.2962 c 9.0442,-0.33571 10.5204,0.58379 10.5204,6.55307 0,6.25901 -1.2276,7.24313 -9.0352,7.24313 h -6.9648 v 17 17 h 6.4286 c 7.096,0 9.5714,1.43191 9.5714,5.53663 0,1.31658 1.305,3.88013 2.9001,5.69678 1.595,1.81665 3.0575,4.40134 3.25,5.74376 0.3042,2.12209 1.1641,2.60503 6.5859,3.69888 6.8057,1.37306 11.1569,3.28506 13.2699,5.8311 0.7482,0.90146 3.1565,2.55537 5.3518,3.67535 5.8001,2.95895 13.8978,11.51334 16.6297,17.5675 1.303,2.8875 2.7086,5.25 3.1235,5.25 1.7397,0 1.8895,-4.06971 0.2424,-6.58356 -1.6851,-2.57184 -1.6775,-2.73707 0.1975,-4.29558 4.0675,-3.38092 5.1526,-6.49889 5.958,-17.12086 0.9477,-12.49828 0.9758,-25.84872 0.056,-26.76819 -0.8107,-0.81077 -0.9239,-0.81378 -39.3433,-1.04421 l -31.2779,-0.1876 0.2782,-13.75 0.2782,-13.75 33,-0.5 33,-0.5 0.2484,-4.5 c 0.1366,-2.475 0.9853,-8.46521 1.886,-13.31159 1.1678,-6.28368 1.3475,-9.4394 0.6261,-11 -2.7439,-5.93643 -3.08,-7.74499 -2.3844,-12.8288 0.6848,-5.00508 3.4252,-10.85961 5.0831,-10.85961 1.1869,0 3.151,16.16226 2.1158,17.40969 -0.9787,1.17923 -0.2551,16.68079 0.863,18.49002 0.4551,0.73639 1.7234,0.771 4.0284,0.10994 4.3997,-1.26184 7.4796,-0.4134 9.0325,2.48832 1.0674,1.99437 0.9368,3.00331 -0.8718,6.73949 -3.3436,6.907 -2.9899,7.92749 2.6229,7.56733 l 4.75,-0.30479 0.2615,-40.4481 c 0.1994,-30.8322 0.556,-40.6351 1.5,-41.23469 2.0743,-1.31739 26.1733,-0.98241 27.5385,0.38279 1.785,1.78504 1.7358,181.33516 -0.05,182.49098 -1.5393,0.99628 -134.0602,1.66551 -135.0437,0.68198 z m 105.2937,-49.87296 c 0,-0.825 -0.4234,-1.5 -0.941,-1.5 -1.261,0 -2.1641,1.56159 -1.3651,2.36052 1.1261,1.12618 2.3061,0.68589 2.3061,-0.86052 z M 12.608274,279.67338 c -0.382601,-0.3826 -0.695638,-41.25563 -0.695638,-90.82897 0,-68.77037 0.284418,-90.41775 1.2,-91.33333 1.639391,-1.63939 112.238244,-1.71811 120.000784,-0.0854 9.08342,1.91052 15.80301,5.73158 23.39929,13.30588 8.50379,8.47919 13.42271,17.88427 15.96196,30.51967 3.0735,15.29379 0.90631,25.8754 -8.15334,39.80986 l -5.36383,8.25 5.49992,8.43763 c 7.76292,11.90937 8.77655,15.08655 8.79332,27.56237 0.0122,9.10347 -0.38304,11.6364 -2.97192,19.04417 -5.33357,15.26138 -14.68055,26.31349 -27.36618,32.35845 l -6.5,3.09738 -61.554366,0.27897 c -33.854899,0.15344 -61.867399,-0.0341 -62.25,-0.41667 z M 127.59754,251.24746 c 7.50521,-2.83566 13.37819,-12.63748 14.09202,-23.51914 0.54398,-8.29239 -1.25189,-13.30059 -7.23167,-20.16724 l -3.7011,-4.25 h -18.29963 c -14.399334,0 -18.545411,-0.29614 -19.452782,-1.38946 -0.773698,-0.93225 -1.06078,-5.62128 -0.872444,-14.25 l 0.280702,-12.86054 19.353974,-0.5 19.35397,-0.5 3.39759,-4 c 5.23353,-6.16148 7.39447,-11.35692 7.39447,-17.77821 0,-11.05975 -7.17626,-23.53587 -14.80859,-25.74513 -2.42785,-0.70277 -17.55448,-0.96722 -44.191414,-0.77259 l -40.5,0.29593 -0.259274,62 c -0.142601,34.1 -0.04422,62.5625 0.218615,63.25 0.628944,1.64511 80.900093,1.82066 85.225563,0.18638 z m 408.92209,27.48183 c -0.33385,-0.86998 -0.60699,-35.74498 -0.60699,-77.5 v -75.91821 h -30.3 c -22.23333,0 -30.61947,-0.31947 -31.5,-1.2 -1.65891,-1.65891 -1.65891,-24.94109 0,-26.6 0.91234,-0.91234 19.47302,-1.2 77.42857,-1.2 67.96537,0 76.39892,0.17034 77.8,1.57143 1.24993,1.24993 1.57143,3.97099 1.57143,13.3 0,7.78889 -0.40309,12.13166 -1.2,12.92857 -0.88139,0.88139 -9.37778,1.2 -32,1.2 h -30.8 v 75.91821 c 0,41.75502 -0.27314,76.63002 -0.60699,77.5 -0.5143,1.34025 -2.78852,1.58179 -14.89301,1.58179 -12.10449,0 -14.37871,-0.24154 -14.89301,-1.58179 z m 132.00261,0.007 c -0.33528,-0.87391 -0.6096,-41.56984 -0.6096,-90.43557 0,-79.43647 0.16644,-89.01322 1.57143,-90.41821 1.3974,-1.39741 9.01645,-1.57143 68.8,-1.57143 50.95555,0 67.51904,0.29047 68.42857,1.2 1.77767,1.77767 1.65323,25.17896 -0.14181,26.66871 -0.94001,0.78014 -17.33457,1.19111 -54.75,1.37245 l -53.40819,0.25884 v 63 63 l 54.5,0.5 54.5,0.5 v 13.5 13.5 l -69.1404,0.25681 c -62.3997,0.23178 -69.19983,0.10194 -69.75,-1.33179 z m 391.08326,0.93459 c -0.3811,-0.38131 -0.6929,-41.25313 -0.6929,-90.82647 0,-68.77037 0.2844,-90.41775 1.2,-91.33333 1.7952,-1.79524 26.1773,-1.65529 27.6829,0.1589 0.8229,0.99155 1.0588,25.79454 0.8724,91.75 l -0.2553,90.3911 -14.0571,0.27628 c -7.7313,0.15195 -14.3688,-0.0356 -14.75,-0.41667 z M 714.35283,206.01582 c -0.27768,-0.72362 -0.37782,-6.91572 -0.22253,-13.76021 l 0.28234,-12.44453 h 45.5 45.5 v 13.5 13.5 l -45.27747,0.26021 c -36.68901,0.21085 -45.37323,0.0106 -45.78234,-1.05547 z m 12.25829,-30.33959 c -1.0325,-1.0325 -0.84835,-8.81258 0.23469,-9.91515 0.51325,-0.5225 1.07575,-2.75 1.25,-4.95 l 0.31683,-4 h 10 10 v 9.5 9.5 l -10.55152,0.28182 c -5.80333,0.155 -10.86583,-0.0325 -11.25,-0.41667 z m 48.37347,-0.77846 c -1.66029,-2.00052 -0.52966,-3.58669 2.55662,-3.58669 2.02857,0 2.44919,0.42999 2.19098,2.23978 -0.38313,2.68544 -3.01665,3.43258 -4.7476,1.34691 z M 462.99065,160.93031 c -4.96263,-12.67449 -13.13275,-25.53764 -22.48191,-35.39581 -6.20172,-6.53937 -6.79078,-7.50576 -5.79169,-9.5016 0.61171,-1.222 1.24346,-6.8082 1.40389,-12.41377 l 0.2917,-10.19194 -6.08816,-1.05914 C 411.60279,89.11108 392.22838,78.85066 378.32671,64.83074 339.33288,25.50524 339.90498,-37.924537 379.5946,-75.743 c 18.59911,-17.722262 39.50279,-26.6515 64.81804,-27.68775 39.35654,-1.61101 75.22124,19.803699 92.51735,55.24183 6.65315,13.631695 9.14054,23.873657 9.71453,40 0.99763,28.02909 -7.99825,51.39631 -27.6415,71.80008 -13.70508,14.2357 -28.15726,22.55385 -47.85359,27.54279 l -10.49466,2.65822 0.18863,10.98668 c 0.12948,7.54118 0.60947,11.4611 1.53055,12.49945 0.73805,0.83203 1.63439,3.98778 1.99188,7.01278 1.22113,10.33314 1.68709,34.47053 0.71427,37 l -0.96149,2.5 z m 2.93707,-115.83489 c 21.56381,-7.82962 35.00426,-26.90658 34.97305,-49.63968 -0.0212,-15.418176 -4.49771,-26.54248 -14.98813,-37.245818 -10.33333,-10.543058 -22.95618,-15.898842 -37.4714,-15.898842 -15.08173,0 -27.40447,5.096375 -37.89755,15.67347 -21.24408,21.414173 -20.14891,56.4151 2.39893,76.6682 14.0748,12.64239 35.36849,16.83909 52.9851,10.44267 z m 541.53088,80.54724 c -3.8246,-4.16453 -10.01576,-10.01486 -13.75796,-13.00073 l -6.80407,-5.42886 0.25803,-58.201 0.25804,-58.20099 2.13114,-0.93595 2.13115,-0.93595 -2.09871,-1.699436 c -3.05113,-2.470655 -0.77984,-4.742515 5.12585,-5.127127 5.88703,-0.383401 5.97693,-0.68865 6.12613,-20.801537 0.063,-8.525 0.5512,-16.175 1.0844,-17 0.7119,-1.101559 1.0077,-0.304676 1.1138,3 0.079,2.475 0.4238,11.25 0.7653,19.5 l 0.6209,15 4.6703,0.301537 c 5.7032,0.368223 8.2688,2.672965 5.3508,4.806676 -1.0468,0.765487 -3.3924,1.391787 -5.2122,1.391787 -5.1206,0 -3.9047,1.85219 1.4411,2.19521 l 4.75,0.30479 0.2567,71.25 c 0.1411,39.1875 -0.084,71.22828 -0.5,71.20172 -0.4162,-0.0265 -3.886,-3.45561 -7.7107,-7.62014 z M 96.162319,93.31247 C 55.994406,87.65552 23.388487,58.71807 12.779577,19.31108 9.7958638,8.22802 9.4993798,-16.203702 12.216955,-27.051733 c 4.399772,-17.563034 12.611669,-32.411967 25.168609,-45.51043 9.777033,-10.198672 17.188758,-15.604058 29.582885,-21.574856 18.098249,-8.718721 20.562279,-9.051901 66.944191,-9.051901 h 40.5 l -0.1328,5.5 c -0.27933,11.568259 -8.37968,24.820027 -19.60755,32.076948 -9.65997,6.243542 -13.59846,7.07537 -37.25965,7.869425 -23.439498,0.786614 -26.803151,1.571983 -38.154144,8.908484 C 52.475551,-31.52341 47.868488,8.00402 69.93705,31.14159 c 13.415637,14.06549 33.55817,20.12392 51.47559,15.48272 l 7,-1.81323 0.27903,-13.25 0.27902,-13.25 h -20.40658 c -24.119979,0 -23.602439,0.21534 -21.870139,-9.09963 1.642356,-8.83132 5.435508,-16.22779 11.678945,-22.773373 6.136564,-6.433548 12.208984,-10.133659 20.607104,-12.556533 4.57829,-1.320849 9.99682,-1.558612 30.5,-1.338332 l 24.93262,0.267868 0.25967,47.70204 0.25966,47.70204 -2.25966,2.14743 c -8.06776,7.66706 -27.2903,17.51893 -40.66786,20.84296 -9.63581,2.39428 -26.68524,3.3965 -35.842131,2.10692 z M 227.91264,92.94067 C 214.89947,90.09481 202.5372,80.07377 196.61409,67.56961 l -3.20145,-6.75853 v -44 -44 l 43.5,-0.5 43.5,-0.5 3.26509,-2.328838 c 4.779,-3.408645 6.54108,-7.465592 6.01227,-13.842422 -0.32003,-3.859033 -1.11487,-6.063116 -2.86027,-7.931444 -4.78811,-5.125333 -6.25143,-5.39687 -29.11743,-5.403088 -11.71481,-0.0032 -23.94884,-0.439632 -27.18672,-0.969881 -12.64867,-2.071397 -26.21973,-11.341825 -31.85979,-21.763506 -3.34606,-6.182843 -5.96624,-15.354316 -5.56806,-19.490016 l 0.31491,-3.270805 h 46.5 c 46.46586,0 46.50542,0.002 53.87571,2.41582 24.90694,8.157957 42.12429,31.69419 42.12429,57.58418 0,16.685451 -5.95797,30.63843 -18.40642,43.10604 -6.27544,6.28511 -9.86099,8.95302 -15.96135,11.87642 l -7.86777,3.77038 31.61777,31.62935 c 17.38977,17.39614 31.61777,32.14925 31.61777,32.78469 0,1.87103 -6.04487,6.44031 -12.5,9.44866 -11.91266,5.55179 -24.51043,5.60097 -37,0.14446 -5.27204,-2.30327 -9.70478,-6.29986 -36.53558,-32.94066 -16.79457,-16.67563 -30.85707,-30.31934 -31.25,-30.31934 -0.39293,0 -0.71442,14.59286 -0.71442,32.42857 0,38.88305 0.68405,36.75621 -11,34.20102 z m 839.61906,-1.17974 c -1.0331,-2.69228 -0.6918,-24.44556 0.4161,-26.51559 0.8973,-1.67667 2.1538,-1.93426 9.4349,-1.93426 4.6198,0 9.5667,0.44371 10.9931,0.98601 l 2.5934,0.98602 -0.2783,13.76398 -0.2783,13.76399 -11.1309,0.28164 c -9.4877,0.24006 -11.2222,0.0435 -11.75,-1.33179 z"
       id="path4522"
       inkscape:connector-curvature="0" />
    <path
       style="fill:#b3b0ca"
       d="m 318.91264,284.54896 c -9.8774,-4.0503 -29.03329,-22.00237 -37.54348,-35.18412 -5.9561,-9.22565 -10.95603,-20.91828 -13.70661,-32.05376 -3.09509,-12.5302 -2.86602,-32.01441 0.5292,-45.01148 4.94641,-18.93512 14.18509,-34.51644 28.51619,-48.09341 24.81888,-23.51288 58.43712,-32.58319 92.01168,-24.82506 34.98544,8.08415 63.30365,35.13954 73.71731,70.42995 3.61794,12.26068 4.50672,31.29577 2.03283,43.53718 -2.29676,11.36488 -8.0196,24.92924 -14.84662,35.18961 -9.55841,14.3654 -27.46973,30.74053 -39.05743,35.7076 l -4.45213,1.9084 -1.96464,-2.17139 c -3.48052,-3.8468 -14.2363,-20.54549 -14.2363,-22.10231 0,-0.8292 2.5875,-3.15121 5.75,-5.16003 25.25558,-16.04235 38.43157,-36.77597 38.3893,-60.40906 -0.0205,-11.47448 -1.77831,-18.68008 -7.31541,-29.9876 -7.06751,-14.43281 -22.26403,-27.79059 -38.19448,-33.57303 -18.50021,-6.71522 -38.28264,-4.89192 -56.52907,5.21014 -9.13593,5.05807 -21.54607,17.77709 -26.3931,27.05001 -16.8804,32.29415 -5.72559,68.42377 28.0998,91.01317 5.85676,3.91128 8.13694,5.99092 7.73035,7.05048 -0.8214,2.14052 -15.73801,20.81778 -17.53739,21.95876 -0.99959,0.63384 -2.66763,0.47235 -5,-0.48405 z m -112.52957,-3.46238 c -0.2675,-0.70152 -0.37028,-42.6755 -0.2284,-93.2755 l 0.25797,-92 h 16 16 v 93 93 l -15.7716,0.2755 c -12.06826,0.21081 -15.8858,-0.024 -16.25797,-1 z m 127.19624,0.55783 c -1.20197,-1.20197 -0.74183,-1.98906 6.33333,-10.83333 3.85,-4.81267 6.99893,-9.2565 6.99762,-9.87516 -10e-4,-0.61866 -2.495,-2.42729 -5.54154,-4.01918 -7.76776,-4.05884 -17.34305,-11.51308 -22.84059,-17.78111 l -4.67004,-5.32455 0.27727,-9 0.27728,-9 10.41321,-0.28679 c 6.5145,-0.17941 10.82011,0.11844 11.5,0.79554 0.59774,0.59527 1.31179,6.34932 1.58679,12.78678 0.4644,10.87114 0.6424,11.70447 2.5,11.70447 1.9359,0 2.00831,-0.75313 2.25938,-23.5 0.2281,-20.66509 0.46226,-23.65079 1.94113,-24.75 1.86787,-1.38834 18.96868,-1.7472 21.02437,-0.44119 0.86907,0.55213 1.30481,5.70389 1.5,17.73469 0.26282,16.19813 0.36457,16.9565 2.27512,16.9565 1.88945,0 2.01537,-0.75938 2.27814,-13.73801 0.27696,-13.6796 0.28865,-13.74065 2.75,-14.35841 1.35952,-0.34122 3.59686,-0.33804 4.97186,0.007 2.43012,0.60993 2.5,0.87383 2.5,9.44175 0,4.84785 0.25347,9.06775 0.56326,9.37754 0.3098,0.3098 1.7723,0.24026 3.25,-0.15452 l 2.68674,-0.71772 0.5,-27.42881 0.5,-27.42882 h 15.39208 15.39208 l 2.10792,2.82047 c 1.93437,2.58826 2.13135,4.3172 2.39252,21 0.25236,16.12032 0.52243,18.65588 2.38426,22.38489 l 2.09966,4.20537 -2.25863,5.5649 c -5.08027,12.51699 -19.52222,28.53274 -32.14406,35.64693 -9.29531,5.23922 -10.56861,6.41825 -9.24685,8.56231 0.61544,0.99832 3.47177,5.49969 6.34739,10.00304 2.87563,4.50335 4.93303,8.66585 4.572,9.25 -0.7285,1.17874 -61.70488,1.56225 -62.8717,0.39542 z m 90.80852,-0.37347 c -0.35356,-0.57208 0.63238,-2.01826 2.19098,-3.21373 1.55861,-1.19547 5.91502,-5.11491 9.68091,-8.70986 13.37513,-12.768 22.02705,-26.47437 28.32622,-44.87443 4.10451,-11.9894 4.32833,-13.22959 4.3585,-24.15013 0.0236,-8.53439 0.41153,-12.01375 1.5,-13.45284 0.80751,-1.06762 1.4682,-2.68538 1.4682,-3.59501 0,-0.90964 0.9,-2.46837 2,-3.46386 1.41195,-1.2778 2,-3.07997 2,-6.12931 0,-3.78784 0.36915,-4.51022 3,-5.87069 l 3,-1.55136 v -13.86733 c 0,-15.80786 -0.43408,-15.08131 9.01036,-15.08131 8.92876,0 8.98964,0.13253 8.98964,19.57143 0,13.93651 0.22754,16.42857 1.5,16.42857 1.27439,0 1.5,-2.55165 1.5,-16.96482 0,-19.7009 -0.36206,-19.03518 10.35247,-19.03518 10.34473,0 9.64753,-1.42053 9.64753,19.65665 0,19.59904 0.77859,23.52918 4.87347,24.60001 1.52776,0.39952 2.10688,1.7379 2.65693,6.14032 0.38684,3.0962 1.10076,5.87506 1.58647,6.17525 0.48883,0.30211 0.88313,19.87274 0.88313,43.83311 v 43.28731 l -12.157,0.65367 c -20.31989,1.09259 -95.64038,0.79054 -96.36781,-0.38646 z m 145.76856,-76.20986 0.25625,-76.25 2.68274,-0.30993 c 1.88992,-0.21834 3.00854,0.29883 3.78519,1.75 0.91014,1.70062 2.07199,2.05993 6.66087,2.05993 4.78589,0 5.63392,0.28864 6.10151,2.07672 0.2987,1.1422 1.60657,2.48106 2.90638,2.97525 l 2.36331,0.89853 v 27.59049 c 0,18.47578 0.37164,28.31208 1.12496,29.77475 1.4275,2.77167 4.96845,6.68426 6.04935,6.68426 0.45413,0 0.82569,-14.87958 0.82569,-33.06574 0,-20.88071 0.38147,-33.77854 1.03518,-35 0.86685,-1.61971 2.13528,-1.93426 7.8,-1.93426 3.92819,0 7.268,0.50318 7.96482,1.2 0.88315,0.88315 1.2,9.61852 1.2,33.08333 0,25.06119 0.26747,31.7946 1.25,31.46861 0.6875,-0.2281 1.50008,-2.25166 1.80573,-4.49679 0.30565,-2.24513 1.08613,-4.72115 1.73439,-5.50226 0.83062,-1.00083 1.25709,-9.95606 1.44427,-30.32709 l 0.26561,-28.9069 3,-0.51825 3,-0.51825 0.27598,-15.85743 c 0.2961,-17.01299 -0.0956,-18.62497 -4.52573,-18.62497 h -2.50486 l 0.71395,-22.25 c 0.52815,-16.45924 1.0818,-22.82643 2.12731,-24.46482 0.77734,-1.21815 1.41335,-3.59477 1.41335,-5.28138 0,-1.80335 0.6179,-3.30368 1.5,-3.64217 0.825,-0.31659 1.5,-1.13272 1.5,-1.81363 0,-0.68091 0.9,-2.05251 2,-3.048 1.1,-0.99549 2,-2.30698 2,-2.91444 0,-0.60746 0.9,-1.66653 2,-2.35349 1.85471,-1.15828 2,-2.33202 2,-16.15714 V -3.52211 l 2.66377,-1.94042 c 1.88147,-1.37056 2.8726,-3.23057 3.37484,-6.33341 l 0.71106,-4.39298 0.12516,4.59501 c 0.0875,3.21144 0.72738,5.14001 2.12517,6.40499 1.81552,1.64302 2,3.07997 2,15.57826 0,13.22722 0.0983,13.88505 2.5,16.73937 1.375,1.6341 2.5,3.29136 2.5,3.68282 0,0.39146 1.35,2.41626 3,4.49955 2.08928,2.63794 3,4.89205 3,7.42529 0,2.31082 0.54708,3.84741 1.5,4.21308 1.19927,0.46021 1.5,2.64494 1.5,10.89719 0,7.84141 0.36044,10.68202 1.5,11.82158 1.14873,1.14874 1.5,4.03715 1.5,12.3343 0,10.27642 -0.11586,10.88513 -2.25,11.82143 l -2.25,0.98713 -0.25515,93.25 -0.25516,93.25 h -47.50109 -47.50109 z m 241.2352,75 c -0.25205,-0.6875 -0.57543,-7.775 -0.71861,-15.75 l -0.26034,-14.5 -53.5,-0.25185 c -48.88221,-0.23011 -53.60789,-0.39766 -54.75,-1.94113 -1.86141,-2.51555 -1.81118,-109.1573 0.0526,-111.70619 2.34364,-3.20511 3.60013,0.3164 3.90884,10.95518 l 0.28856,9.94399 6,0.5 6,0.5 0.29377,7.8448 c 0.32219,8.60359 -0.42614,10.36151 -4.61695,10.84584 l -2.67682,0.30936 v 16.5 16.5 l 18.32232,0.5 c 16.42857,0.44832 18.42823,0.68961 19.34697,2.33448 0.9806,1.75562 1.10813,1.74487 2.96663,-0.25 2.19345,-2.35439 3.16875,-2.52698 5.92982,-1.0493 1.35441,0.72486 1.93426,2.09884 1.93426,4.58334 0,4.62518 2.37166,4.04989 2.83135,-0.68679 0.18225,-1.87784 0.85725,-3.74879 1.5,-4.15768 0.64276,-0.40888 10.96703,-0.75032 22.94283,-0.75874 l 21.77418,-0.0153 -0.27418,-16.75 -0.27418,-16.75 -11.48902,-0.5 c -9.56935,-0.41646 -11.54098,-0.77212 -11.79995,-2.12862 -0.36389,-1.90606 2.29634,-4.87138 4.37019,-4.87138 0.79109,0 2.20896,0.9 3.15081,2 1.36859,1.5984 2.94994,2 7.8752,2 5.50936,0 6.34067,-0.27154 7.84089,-2.56117 0.94774,-1.44643 2.41234,-2.42095 3.36501,-2.23902 1.4301,0.27311 1.76298,2.07099 2.18687,11.81117 0.48149,11.06379 0.58531,11.50111 2.80504,11.81578 2.78602,0.39495 5.19496,-1.40896 5.19496,-3.89019 0,-2.1463 2.20542,-3.8203 2.77639,-2.10739 0.21694,0.6508 0.806,0.92892 1.30902,0.61803 0.50302,-0.31088 0.91459,-4.79785 0.91459,-9.97104 0,-8.30254 0.22877,-9.52824 1.95035,-10.4496 1.5212,-0.81412 2.01629,-2.30714 2.25,-6.78518 l 0.29965,-5.74139 h 7 c 8.04552,0 7.91495,-0.25507 5.11733,9.99684 -5.85536,21.45698 -3.76229,44.91064 5.8116,65.12132 5.47907,11.56643 9.06142,16.78654 17.91938,26.11168 7.92008,8.33777 19.64053,16.556 30.98325,21.72504 4.21764,1.92205 7.66844,3.73099 7.66844,4.01987 0,0.28889 -21.16412,0.52525 -47.03138,0.52525 -36.71403,0 -47.13192,-0.27421 -47.48967,-1.25 z m 106.14487,-0.32818 c -29.46485,-6.57326 -52.49099,-25.04707 -65.63952,-52.66241 -21.65536,-45.48188 -1.42693,-100.2288 45.149,-122.19279 32.74711,-15.44268 67.99874,-10.99619 96.97856,12.23247 12.0758,9.67931 27.8881,30.41335 27.8881,36.56852 0,1.71803 -19.9453,15.63239 -22.40796,15.63239 -0.8111,0 -2.85955,-2.5875 -4.55212,-5.75 -1.69257,-3.1625 -5.65646,-8.76851 -8.80864,-12.45781 -19.42822,-22.73867 -43.97588,-30.63409 -69.06217,-22.2129 -17.07979,5.73349 -29.26385,16.61928 -37.67231,33.65814 -11.82538,23.96285 -7.01861,50.96103 12.59284,70.73021 17.77083,17.91376 45.05934,23.35568 67.58538,13.478 11.54078,-5.06063 24.94947,-16.36809 32.36138,-27.29013 1.905,-2.80717 4.14753,-5.11554 4.98344,-5.12972 2.1302,-0.0361 19.98016,18.11643 19.98016,20.31896 0,4.46982 -18.21286,23.73341 -29.87807,31.60167 -7.91229,5.33692 -18.58609,10.27043 -27.12189,12.53596 -9.22552,2.44858 -33.22636,2.98066 -42.37618,0.93944 z m 50.37618,0.81121 c 0,-0.43339 2.87498,-2.04046 6.38885,-3.57127 15.03456,-6.54976 32.73731,-21.318 42.99711,-35.86964 3.7337,-5.29554 4.524,-7.08522 3.7538,-8.5 -1.3337,-2.44998 -23.60986,-24.29944 -24.73621,-24.26241 -0.49695,0.0163 -3.15355,3.42782 -5.90355,7.58108 -9.24034,13.95544 -23.87024,25.52192 -38.5,30.4383 -8.27749,2.78168 -21.8523,3.00296 -30.52501,0.49758 -13.79849,-3.98611 -27.43959,-13.76007 -34.90821,-25.01203 -1.96173,-2.95546 -3.56678,-5.81167 -3.56678,-6.34712 0,-1.98833 3.09705,-2.09704 4.74983,-0.16672 3.45699,4.03746 4.17013,2.55754 4.46742,-9.2708 l 0.28275,-11.25 3.5,-1.12909 3.5,-1.12909 0.5,-14.37091 0.5,-14.37091 9.67961,-0.28536 9.67962,-0.28537 2.57038,5.11753 c 1.43232,2.85168 2.57039,6.82606 2.57039,8.97634 0,4.48523 1.41248,5.81853 3.83833,3.62317 1.14537,-1.03654 4.18718,-1.6484 9.18699,-1.84797 l 7.47468,-0.29834 0.76666,-9 c 0.42166,-4.95 1.09666,-13.275 1.5,-18.5 l 0.73334,-9.5 3.81979,-0.31453 c 5.86166,-0.48265 6.68021,0.79926 6.68021,10.46173 0,8.02944 0.11031,8.44424 2.48571,9.34737 l 2.48571,0.94506 0.26429,31.28019 0.26429,31.28018 2.25,0.31955 c 2.06953,0.29392 2.25,-0.0718 2.25,-4.55887 0,-2.74133 0.64317,-5.72877 1.4682,-6.81955 1.10734,-1.46404 1.47601,-5.06029 1.5,-14.63211 0.0175,-6.98004 0.42719,-12.93535 0.91045,-13.23402 0.48326,-0.29867 1.06829,-3.16466 1.30006,-6.36885 0.34546,-4.77601 1.03344,-6.58742 3.81787,-10.05227 2.93507,-3.65231 3.77732,-4.14281 6.19995,-3.61072 2.59768,0.57055 2.80347,0.3897 2.80347,-2.4637 0,-1.90843 0.50997,-3.07946 1.34107,-3.07946 1.17432,0 5.82167,7.22549 7.87671,12.24634 1.08452,2.6498 2.61352,2.19358 10.71258,-3.1964 4.0867,-2.71974 7.7992,-4.71704 8.25,-4.43845 0.4508,0.2786 0.8196,2.74411 0.8196,5.47891 0,5.54537 1.1075,6.57962 5.3276,4.97516 2.5726,-0.97811 2.6724,-1.29954 2.6724,-8.60655 0,-4.17477 0.5006,-8.52586 1.1124,-9.66908 0.7992,-1.49333 0.8135,-3.09382 0.051,-5.68426 -0.6075,-2.06319 -1.2915,-18.56208 -1.5989,-38.56746 l -0.5371,-34.96178 5.2364,-4.92052 c 2.88,-2.70628 7.6189,-6.95775 10.5309,-9.4477 l 5.2945,-4.5272 4.0713,3.9095 c 2.2392,2.15022 6.2691,6.52035 8.9555,9.71141 4.7032,5.58686 4.8836,6.03165 4.8689,12 -0.017,6.89967 -0.5657,8.29243 -3.4847,8.84601 -1.9788,0.37527 -2.0053,1.37168 -2.5,93.86568 l -0.5,93.48639 -43.75,0.26051 c -24.06266,0.14328 -43.75016,-0.0941 -43.75016,-0.52748 z m 124.70626,0.13993 c -0.3885,-0.38846 -0.7063,-13.66546 -0.7063,-29.50444 0,-27.25111 0.1019,-28.85268 1.8966,-29.81316 2.2489,-1.20362 2.8882,-7.47223 3.9319,-38.55536 l 0.6715,-20 7.9796,-0.2962 c 9.0442,-0.33571 10.5204,0.58379 10.5204,6.55307 0,6.25901 -1.2276,7.24313 -9.0352,7.24313 h -6.9648 v 17 17 h 6.4286 c 7.096,0 9.5714,1.43191 9.5714,5.53663 0,1.31658 1.305,3.88013 2.9001,5.69678 1.595,1.81665 3.0575,4.40134 3.25,5.74376 0.3042,2.12209 1.1641,2.60503 6.5859,3.69888 6.8057,1.37306 11.1569,3.28506 13.2699,5.8311 0.7482,0.90146 3.1565,2.55537 5.3518,3.67535 5.8001,2.95895 13.8978,11.51334 16.6297,17.5675 1.303,2.8875 2.7086,5.25 3.1235,5.25 1.7397,0 1.8895,-4.06971 0.2424,-6.58356 -1.6851,-2.57184 -1.6775,-2.73707 0.1975,-4.29558 4.0675,-3.38092 5.1526,-6.49889 5.958,-17.12086 0.9477,-12.49828 0.9758,-25.84872 0.056,-26.76819 -0.8107,-0.81077 -0.9239,-0.81378 -39.3433,-1.04421 l -31.2779,-0.1876 0.2782,-13.75 0.2782,-13.75 33,-0.5 33,-0.5 0.2484,-4.5 c 0.1366,-2.475 0.9853,-8.46521 1.886,-13.31159 1.1678,-6.28368 1.3475,-9.4394 0.6261,-11 -2.7439,-5.93643 -3.08,-7.74499 -2.3844,-12.8288 0.6848,-5.00508 3.4252,-10.85961 5.0831,-10.85961 1.1869,0 3.151,16.16226 2.1158,17.40969 -0.9787,1.17923 -0.2551,16.68079 0.863,18.49002 0.4551,0.73639 1.7234,0.771 4.0284,0.10994 4.3997,-1.26184 7.4796,-0.4134 9.0325,2.48832 1.0674,1.99437 0.9368,3.00331 -0.8718,6.73949 -3.3436,6.907 -2.9899,7.92749 2.6229,7.56733 l 4.75,-0.30479 0.2615,-40.4481 c 0.1994,-30.8322 0.556,-40.6351 1.5,-41.23469 2.0743,-1.31739 26.1733,-0.98241 27.5385,0.38279 1.785,1.78504 1.7358,181.33516 -0.05,182.49098 -1.5393,0.99628 -134.0602,1.66551 -135.0437,0.68198 z m 105.2937,-49.87296 c 0,-0.825 -0.4234,-1.5 -0.941,-1.5 -1.261,0 -2.1641,1.56159 -1.3651,2.36052 1.1261,1.12618 2.3061,0.68589 2.3061,-0.86052 z M 12.608274,279.67338 c -0.382601,-0.3826 -0.695638,-41.25563 -0.695638,-90.82897 0,-68.77037 0.284418,-90.41775 1.2,-91.33333 1.639391,-1.63939 112.238244,-1.71811 120.000784,-0.0854 9.08342,1.91052 15.80301,5.73158 23.39929,13.30588 8.50379,8.47919 13.42271,17.88427 15.96196,30.51967 3.0735,15.29379 0.90631,25.8754 -8.15334,39.80986 l -5.36383,8.25 5.49992,8.43763 c 7.76292,11.90937 8.77655,15.08655 8.79332,27.56237 0.0122,9.10347 -0.38304,11.6364 -2.97192,19.04417 -5.33357,15.26138 -14.68055,26.31349 -27.36618,32.35845 l -6.5,3.09738 -61.554366,0.27897 c -33.854899,0.15344 -61.867399,-0.0341 -62.25,-0.41667 z M 127.59754,251.24746 c 7.50521,-2.83566 13.37819,-12.63748 14.09202,-23.51914 0.54398,-8.29239 -1.25189,-13.30059 -7.23167,-20.16724 l -3.7011,-4.25 h -18.29963 c -14.399334,0 -18.545411,-0.29614 -19.452782,-1.38946 -0.773698,-0.93225 -1.06078,-5.62128 -0.872444,-14.25 l 0.280702,-12.86054 19.353974,-0.5 19.35397,-0.5 3.39759,-4 c 5.23353,-6.16148 7.39447,-11.35692 7.39447,-17.77821 0,-11.05975 -7.17626,-23.53587 -14.80859,-25.74513 -2.42785,-0.70277 -17.55448,-0.96722 -44.191414,-0.77259 l -40.5,0.29593 -0.259274,62 c -0.142601,34.1 -0.04422,62.5625 0.218615,63.25 0.628944,1.64511 80.900093,1.82066 85.225563,0.18638 z m 408.92209,27.48183 c -0.33385,-0.86998 -0.60699,-35.74498 -0.60699,-77.5 v -75.91821 h -30.3 c -22.23333,0 -30.61947,-0.31947 -31.5,-1.2 -1.65891,-1.65891 -1.65891,-24.94109 0,-26.6 0.91234,-0.91234 19.47302,-1.2 77.42857,-1.2 67.96537,0 76.39892,0.17034 77.8,1.57143 1.24993,1.24993 1.57143,3.97099 1.57143,13.3 0,7.78889 -0.40309,12.13166 -1.2,12.92857 -0.88139,0.88139 -9.37778,1.2 -32,1.2 h -30.8 v 75.91821 c 0,41.75502 -0.27314,76.63002 -0.60699,77.5 -0.5143,1.34025 -2.78852,1.58179 -14.89301,1.58179 -12.10449,0 -14.37871,-0.24154 -14.89301,-1.58179 z m 132.00261,0.007 c -0.33528,-0.87391 -0.6096,-41.56984 -0.6096,-90.43557 0,-79.43647 0.16644,-89.01322 1.57143,-90.41821 1.3974,-1.39741 9.01645,-1.57143 68.8,-1.57143 50.95555,0 67.51904,0.29047 68.42857,1.2 1.77767,1.77767 1.65323,25.17896 -0.14181,26.66871 -0.94001,0.78014 -17.33457,1.19111 -54.75,1.37245 l -53.40819,0.25884 v 63 63 l 54.5,0.5 54.5,0.5 v 13.5 13.5 l -69.1404,0.25681 c -62.3997,0.23178 -69.19983,0.10194 -69.75,-1.33179 z m 391.08326,0.93459 c -0.3811,-0.38131 -0.6929,-41.25313 -0.6929,-90.82647 0,-68.77037 0.2844,-90.41775 1.2,-91.33333 1.7952,-1.79524 26.1773,-1.65529 27.6829,0.1589 0.8229,0.99155 1.0588,25.79454 0.8724,91.75 l -0.2553,90.3911 -14.0571,0.27628 c -7.7313,0.15195 -14.3688,-0.0356 -14.75,-0.41667 z M 714.35283,206.01582 c -0.27768,-0.72362 -0.37782,-6.91572 -0.22253,-13.76021 l 0.28234,-12.44453 h 45.5 45.5 v 13.5 13.5 l -45.27747,0.26021 c -36.68901,0.21085 -45.37323,0.0106 -45.78234,-1.05547 z m 12.25829,-30.33959 c -1.0325,-1.0325 -0.84835,-8.81258 0.23469,-9.91515 0.51325,-0.5225 1.07575,-2.75 1.25,-4.95 l 0.31683,-4 h 10 10 v 9.5 9.5 l -10.55152,0.28182 c -5.80333,0.155 -10.86583,-0.0325 -11.25,-0.41667 z m 48.37347,-0.77846 c -1.66029,-2.00052 -0.52966,-3.58669 2.55662,-3.58669 2.02857,0 2.44919,0.42999 2.19098,2.23978 -0.38313,2.68544 -3.01665,3.43258 -4.7476,1.34691 z M 462.99065,160.93031 c -4.97062,-12.69491 -13.13289,-25.53781 -22.52357,-35.43967 -6.11368,-6.44648 -6.80236,-7.55292 -5.75,-9.23803 0.69572,-1.11402 1.19556,-5.65558 1.19556,-10.86286 0,-4.92166 0.40543,-10.01484 0.90097,-11.31819 0.83049,-2.18437 0.64585,-2.37695 -2.36076,-2.46217 -5.05155,-0.1432 -19.00716,-4.0367 -26.26599,-7.32801 -22.9802,-10.41972 -42.90107,-31.6436 -51.18242,-54.53023 -5.04755,-13.94959 -6.40803,-22.90872 -5.82366,-38.35046 0.58444,-15.443586 2.64321,-24.700088 8.13942,-36.595911 23.70181,-51.299456 84.66455,-72.160039 134.33568,-45.967766 13.72611,7.237966 26.87569,18.792593 35.26773,30.990016 5.15634,7.494484 11.76806,22.434195 14.18144,32.044106 3.11824,12.416649 3.13044,35.250405 0.0249,46.615375 -7.98851,29.23462 -26.13356,51.61026 -52.30953,64.50569 -6.43839,3.17183 -20.37528,7.51362 -28.3386,8.82837 -2.16195,0.35694 -3.45422,0.95082 -2.8717,1.31974 0.62125,0.39346 1.13411,5.21318 1.24051,11.65799 0.12466,7.55068 0.60111,11.46039 1.52331,12.5 0.73805,0.83203 1.63439,3.98778 1.99188,7.01278 1.22113,10.33314 1.68709,34.47053 0.71427,37 l -0.96149,2.5 -1.12796,-2.88077 z M 447.20239,49.31108 c -0.58664,-2.24332 1.46493,-2.80287 2.29979,-0.62726 0.44612,1.16256 1.62251,1.16396 7.6831,0.009 30.00107,-5.71628 50.29229,-34.73531 44.31906,-63.38174 -5.41087,-25.949484 -26.98617,-44.098484 -52.55646,-44.210143 -15.69918,-0.06855 -27.49656,4.726519 -38.64491,15.707325 -11.79635,11.619072 -17.3267,26.204306 -16.07765,42.401698 1.90221,24.6673 20.16704,45.0045 44.18732,49.2009 3.85,0.67261 7.4275,1.60031 7.95,2.06157 1.3485,1.19044 1.42654,1.08253 0.83975,-1.16135 z m 560.25621,76.33158 c -3.8246,-4.16453 -10.01576,-10.01486 -13.75796,-13.00073 l -6.80407,-5.42886 0.25803,-58.201 0.25804,-58.20099 2.13114,-0.93595 2.13115,-0.93595 -2.09871,-1.699436 c -3.05113,-2.470655 -0.77984,-4.742515 5.12585,-5.127127 5.88703,-0.383401 5.97693,-0.68865 6.12613,-20.801537 0.063,-8.525 0.5512,-16.175 1.0844,-17 0.7119,-1.101559 1.0077,-0.304676 1.1138,3 0.079,2.475 0.4238,11.25 0.7653,19.5 l 0.6209,15 4.6703,0.301537 c 5.7032,0.368223 8.2688,2.672965 5.3508,4.806676 -1.0468,0.765487 -3.3924,1.391787 -5.2122,1.391787 -5.1206,0 -3.9047,1.85219 1.4411,2.19521 l 4.75,0.30479 0.2567,71.25 c 0.1411,39.1875 -0.084,71.22828 -0.5,71.20172 -0.4162,-0.0265 -3.886,-3.45561 -7.7107,-7.62014 z M 98.912636,92.18563 C 58.327386,88.39892 23.516039,58.06077 13.909184,18.10497 0.5776054,-37.342287 37.715744,-92.77351 93.867443,-101.23822 c 13.839907,-2.08633 78.860377,-2.0959 79.660147,-0.0117 0.91996,2.397361 -1.56382,12.139263 -4.69006,18.395425 -3.81343,7.631345 -12.07262,15.400133 -20.66636,19.439271 -6.71522,3.156211 -6.89311,3.180982 -27.75853,3.865134 -23.100344,0.757433 -27.710088,1.650959 -38.000004,7.365706 -7.557454,4.19721 -14.421582,10.75949 -19.543478,18.684058 -5.627031,8.706111 -7.95918,16.974451 -7.944653,28.166776 0.02112,16.27549 4.404182,27.09208 15.469154,38.17506 12.033065,12.05264 24.877943,17.11027 41.018981,16.15107 4.95,-0.29415 10.67232,-1.03478 12.71626,-1.64584 6.58461,-1.96853 6.87553,-2.71704 6.56287,-16.88618 L 130.41264,17.81108 109.76851,17.54111 C 94.038476,17.33541 88.860738,16.95347 88.016805,15.9366 86.432641,14.0278 88.272004,5.27724 91.876474,-2.42534 c 5.352202,-11.437383 17.232316,-20.501712 30.473156,-23.250499 2.94302,-0.610969 14.70719,-0.93897 28.06499,-0.78249 l 22.99802,0.269409 0.25979,47.24486 0.25979,47.24486 -6.1909,4.55748 C 146.95359,88.16134 124.21503,94.54641 98.912636,92.18563 Z m 968.619064,-0.4247 c -1.0331,-2.69228 -0.6918,-24.44556 0.4161,-26.51559 0.8973,-1.67667 2.1538,-1.93426 9.4349,-1.93426 4.6198,0 9.5667,0.44371 10.9931,0.98601 l 2.5934,0.98602 -0.2783,13.76398 -0.2783,13.76399 -11.1309,0.28164 c -9.4877,0.24006 -11.2222,0.0435 -11.75,-1.33179 z M 222.91264,90.26475 c -14.1273,-5.07086 -24.96487,-17.28561 -27.99948,-31.5575 -0.65042,-3.05892 -0.93965,-19.90588 -0.77079,-44.89617 l 0.27027,-40 43,-0.5 c 40.74011,-0.473722 43.17444,-0.605111 46.31907,-2.5 9.57462,-5.769461 10.16093,-19.961442 1.10354,-26.711852 -4.23848,-3.158903 -9.32888,-3.73928 -33.01606,-3.764291 -24.60837,-0.02598 -29.55907,-0.88106 -38.19687,-6.597283 -10.25156,-6.784162 -18.52315,-20.068537 -18.97354,-30.471968 l -0.23614,-5.454606 42.76244,-0.26075 c 34.85029,-0.2125 44.10158,0.0162 50,1.23609 22.77688,4.710574 41.15675,23.042778 46.30549,46.18539 5.7531,25.859073 -7.75467,53.40661 -32.10384,65.4721 -4.65525,2.30677 -8.46409,4.47476 -8.46409,4.81775 0,0.343 14.175,14.77237 31.5,32.06528 17.325,17.29291 31.5,31.95891 31.5,32.59112 0,0.6322 -2.40186,2.80369 -5.33746,4.82552 -13.52103,9.31229 -32.25734,10.04692 -46.66254,1.82958 C 301.42481,85.154 285.9252,70.60951 269.24943,54.04597 252.07908,36.99119 238.61808,24.3751 237.99943,24.75744 c -0.74733,0.46188 -1.08679,11.11707 -1.08679,34.11266 v 33.44098 l -4.25,-0.0361 c -2.3375,-0.0198 -6.725,-0.92445 -9.75,-2.01025 z"
       id="path4520"
       inkscape:connector-curvature="0" />
    <path
       style="fill:#b1b1b2"
       d="m 314.92385,281.58117 c -8.86738,-5.15208 -27.30591,-23.58879 -33.27337,-33.27009 -10.78082,-17.49023 -15.14901,-32.85746 -15.06543,-53 0.0461,-11.11733 0.50037,-15.17872 2.57369,-23.01148 9.44769,-35.6921 36.06682,-62.3195 71.70356,-71.72583 13.21125,-3.48711 34.2637,-3.68732 47.35732,-0.45036 29.61898,7.3223 53.44212,26.21851 66.56403,52.79771 7.36349,14.91519 10.12899,26.68701 10.12899,43.11578 0,17.94498 -4.45893,33.45517 -14.16803,49.2829 -8.88873,14.49035 -33.61996,37.2434 -42.85035,39.42287 -2.25237,0.53182 -3.15136,-0.43043 -9.73162,-10.41645 -3.9875,-6.05132 -7.25,-11.60173 -7.25,-12.33423 0,-0.73251 3.4875,-3.53948 7.75,-6.2377 14.74445,-9.33346 26.68813,-23.40143 32.59092,-38.3875 2.47923,-6.2943 3.05263,-9.39531 3.43457,-18.57473 0.5531,-13.29258 -0.91552,-20.16609 -6.93025,-32.43524 -3.32218,-6.77675 -5.85106,-10.14994 -12.74489,-17 -14.89347,-14.7989 -26.96648,-20.18794 -46.69172,-20.84183 -14.54726,-0.48224 -21.09761,0.89419 -33.40863,7.02019 -11.26825,5.60711 -24.80976,18.76291 -30.33959,29.47542 -9.16239,17.74959 -10.13099,38.65115 -2.58583,55.80048 6.15729,13.99487 18.16862,27.76987 31.41158,36.02384 4.13261,2.57574 7.51384,5.02482 7.51384,5.4424 0,1.29433 -17.03397,22.51779 -18.3024,22.80385 -0.65868,0.14855 -4.11756,-1.42645 -7.68639,-3.5 z m -107.54029,-1.49324 c -0.2678,-0.70227 -0.37082,-42.22685 -0.22892,-92.27685 l 0.258,-91 15.25521,-0.27607 15.25521,-0.27608 -0.25521,92.27608 -0.25521,92.27607 -14.77108,0.27685 c -11.26644,0.21117 -14.88661,-0.0261 -15.258,-1 z M 14.157285,279.48344 c -0.995104,-0.63178 -1.202414,-19.54563 -1,-91.23468 l 0.255351,-90.43768 56.978946,-0.25836 c 35.512188,-0.16102 59.058998,0.12491 62.500008,0.75894 18.28367,3.36893 34.05747,20.5827 38.66142,42.19079 1.86246,8.74127 1.30824,21.32489 -1.22821,27.88635 -0.94023,2.43225 -4.14618,8.13478 -7.12433,12.67228 l -5.41482,8.25 5.55384,8.34691 c 3.05461,4.5908 6.26129,10.3283 7.12596,12.75 2.54329,7.12308 2.91003,16.50079 1.01534,25.96295 -4.62879,23.11645 -20.72393,40.09052 -40.76211,42.98806 -7.74268,1.11961 -114.813898,1.23391 -116.561395,0.12444 z M 131.6547,250.10154 c 5.70246,-3.77519 10.34768,-13.31244 11.013,-22.61112 0.59441,-8.3077 -1.45138,-13.72483 -7.77333,-20.58334 l -4.1965,-4.55266 -18.64261,-0.27167 -18.642624,-0.27167 -0.279025,-13.25 -0.279025,-13.25 h 18.683864 18.68386 l 3.98898,-4.19329 c 2.19394,-2.3063 5.1066,-6.63449 6.47258,-9.6182 2.08748,-4.55965 2.40184,-6.44366 1.97091,-11.81209 -0.92508,-11.52456 -9.04259,-23.44134 -16.93248,-24.85743 -1.82031,-0.32672 -21.53466,-0.46464 -43.809664,-0.30651 l -40.5,0.28752 -0.257564,62.88842 c -0.19118,46.67985 0.04233,63.24977 0.905988,64.29042 0.971581,1.17068 8.12083,1.35408 43.332204,1.11158 l 42.168656,-0.29042 z m 203.25794,29.59848 c 0,-0.33609 3.15,-4.56111 7,-9.38894 3.85,-4.82783 7,-9.27027 7,-9.87209 0,-0.60182 -2.3625,-2.28057 -5.25,-3.73055 -8.12044,-4.07775 -16.83458,-10.64128 -23.07043,-17.37675 l -5.67957,-6.13461 v -7.943 -7.943 h 10.5 10.5 v 11.3 c 0,7.45556 0.40826,11.70826 1.2,12.5 1.83712,1.83712 5.60769,1.42786 6.76482,-0.73426 0.62585,-1.16941 1.03518,-10.85721 1.03518,-24.5 v -22.56574 h 10.5 10.5 v 17.43261 c 0,16.69051 0.0872,17.46029 2.04799,18.08262 4.24304,1.34669 4.95201,-0.82052 4.95201,-15.13767 v -13.37756 h 3.97012 3.97013 l 0.27987,12.75 c 0.23142,10.54228 0.53961,12.75 1.77988,12.75 1.00674,0 1.60084,-1.21272 1.80666,-3.68787 0.24263,-2.91783 0.76464,-3.75305 2.5,-4 2.18301,-0.31066 2.1957,-0.44167 2.69334,-27.81213 l 0.5,-27.5 13,-0.28849 c 7.15,-0.15867 13.93535,-0.057 15.07856,0.22602 3.70725,0.91767 4.42144,4.65589 4.42144,23.14277 0,16.56489 0.12882,17.74041 2.44506,22.31128 l 2.44506,4.8251 -4.1507,8.39166 c -3.3846,6.84282 -5.91229,10.14512 -13.69506,17.89195 -5.88009,5.85294 -11.97921,10.8439 -15.88644,13 -3.48814,1.92484 -7.52069,4.45824 -8.96122,5.62977 l -2.61914,2.13006 6.21122,9.41956 c 3.41617,5.18075 6.21122,9.73473 6.21122,10.11994 0,0.38521 -13.5,0.70038 -30,0.70038 -16.5,0 -30,-0.27498 -30,-0.61106 z m 101.72762,-9.13894 c 13.78843,-13.56349 22.16876,-25.95546 27.55805,-40.75 5.8864,-16.15921 6.7139,-19.8569 6.72939,-30.0705 0.0159,-10.51599 1.52267,-16.88709 4.51035,-19.07174 1.11134,-0.81263 1.93329,-3.07612 2.22698,-6.13267 0.35856,-3.73156 0.95744,-5.06068 2.60656,-5.78487 2.02383,-0.88874 2.15624,-1.7204 2.41851,-15.19022 l 0.27745,-14.25 h 7.44893 7.44893 l 0.27362,17.14221 c 0.24401,15.28753 0.46929,17.26207 2.08218,18.25 1.44747,0.88661 2.09636,0.72023 3.25,-0.83334 1.11697,-1.50419 1.44143,-5.61219 1.44143,-18.25 v -16.30887 h 8.5 8.5 v 18.179 c 0,19.84339 0.82657,24.30967 4.67783,25.27628 2.03095,0.50973 2.32217,1.19213 2.32217,5.44133 0,3.09872 0.54331,5.30941 1.5,6.10339 1.29015,1.07073 1.5,7.17346 1.5,43.62244 v 42.37756 H 479.3206 426.72856 Z m 101.96345,8.5 c -1.55877,-1.15212 -1.71076,-7.24024 -1.94113,-77.75 l -0.24994,-76.5 -31,-0.5 -31,-0.5 v -13 -13 l 76.38997,-0.25628 c 56.55693,-0.18975 76.75075,0.0431 77.7796,0.89701 1.07639,0.89332 1.3266,3.88145 1.11003,13.25628 l -0.2796,12.10299 -31.5,0.5 -31.5,0.5 -0.24994,76.5 c -0.23037,70.50976 -0.38236,76.59788 -1.94113,77.75 -1.11434,0.82363 -5.48337,1.25 -12.80893,1.25 -7.32556,0 -11.69459,-0.42637 -12.80893,-1.25 z m 32.5526,-73.98637 c 0.24483,-71.86175 0.338,-75.25209 2.07721,-75.58697 1.15926,-0.22322 2.01038,0.37409 2.34245,1.64391 0.59912,2.29103 3.05426,3.14639 9.08667,3.16578 3.13174,0.0101 4.25,0.41397 4.25,1.53509 0,0.83679 1.125,2.03402 2.5,2.66051 l 2.5,1.13908 0.0108,28.08949 0.0108,28.08948 4.06441,4.25 c 4.44368,4.64658 5.39365,5.04847 6.30704,2.66821 0.33385,-0.86998 0.60699,-16.61998 0.60699,-35 l -4e-5,-33.41821 h 6.96015 6.96016 l 0.28984,31.95129 c 0.19254,21.22469 0.65336,32.31436 1.37263,33.03278 2.07084,2.06838 4.41722,0.0135 4.41722,-3.86855 0,-2.01878 0.66802,-4.62424 1.4845,-5.78992 1.21315,-1.73203 1.53302,-7.3915 1.75,-30.96306 l 0.2655,-28.84364 3,-0.51927 3,-0.51927 V 110.80126 92.81108 l -3.31115,-0.31792 -3.31114,-0.31792 0.56114,-10.93208 c 0.30863,-6.01264 0.81373,-15.99458 1.12244,-22.18208 0.30871,-6.1875 0.98371,-11.6775 1.5,-12.2 0.51629,-0.5225 0.93871,-2.44912 0.93871,-4.28138 0,-2.03875 0.58203,-3.55474 1.5,-3.90699 0.825,-0.31659 1.5,-1.13272 1.5,-1.81363 0,-0.68091 0.9,-2.05251 2,-3.048 1.1,-0.99549 2,-2.36275 2,-3.03836 0,-0.67561 0.9,-1.46373 2,-1.75139 1.89198,-0.49476 2,-1.36401 2,-16.09358 0,-15.54724 0.004,-15.57304 2.52562,-17.22542 2.36506,-1.54964 2.65114,-1.54126 4.5,0.13194 1.7804,1.61124 1.97438,3.11527 1.97438,15.30847 v 13.52169 l 4.63697,6.84896 c 2.55034,3.76693 5.02534,7.08898 5.5,7.38234 0.47467,0.29336 0.86303,2.32095 0.86303,4.50575 0,2.6085 0.51501,4.17 1.5,4.54797 1.20667,0.46305 1.5,2.71192 1.5,11.5 0,8.78809 0.29333,11.03696 1.5,11.5 1.1993,0.46022 1.5,2.64515 1.5,10.89907 0,9.94446 -0.0826,10.33519 -2.25,10.64301 l -2.25,0.31955 -0.25513,93.75 -0.25512,93.75 h -46.5012 -46.5012 z m 99.50633,74.15627 c -1.646,-0.95871 -1.75,-6.32795 -1.75,-90.34715 0,-74.12775 0.23159,-89.52006 1.361,-90.45739 0.98855,-0.82042 19.80237,-1.05917 68.75,-0.87244 l 67.389,0.25708 v 13 13 l -54.25734,0.25862 -54.25735,0.25861 0.25735,64.24139 0.25734,64.24138 54,0.5 54,0.5 0.28215,12.42111 c 0.21047,9.2652 -0.0436,12.62782 -1,13.23469 -1.93765,1.22951 -132.90902,1.00071 -135.03215,-0.2359 z m 141.91667,0.41343 c -0.36667,-0.36666 -0.66667,-7.32583 -0.66667,-15.46481 0,-13.60704 -0.15569,-14.88147 -1.93426,-15.83334 -1.26296,-0.67591 -20.17745,-1.03518 -54.5,-1.03518 h -52.56574 l 0.18077,-55.75 c 0.0994,-30.6625 0.43693,-51.25 0.75,-45.75 0.31308,5.5 0.93329,10.5625 1.37825,11.25 0.48393,0.74772 2.99535,1.25 6.25,1.25 h 5.44098 v 7.7932 7.79321 l -3.25,0.95679 -3.25,0.9568 -0.27437,17.42592 c -0.20896,13.27178 0.0294,17.61872 1,18.23469 0.7009,0.44482 9.26187,0.81566 19.02437,0.82408 14.78093,0.0127 17.75,0.25635 17.75,1.45629 0,2.55436 2.2623,2.95331 4.07224,0.71813 2.8901,-3.56912 5.56784,-2.81137 6.30259,1.78351 0.69368,4.33799 1.63337,5.3752 4.03493,4.45364 1.07683,-0.41322 1.59024,-1.8671 1.59024,-4.50325 v -3.89301 h 22.52475 22.52475 l 1.04213,-2.74101 c 0.92218,-2.4255 0.74439,-26.64581 -0.26228,-35.73153 -0.24112,-2.17619 0.13053,-3.06479 1.38727,-3.31689 1.52845,-0.30661 1.74769,0.89616 2,10.97253 l 0.28338,11.3169 3.70548,0.30771 c 2.82526,0.23462 3.99972,-0.16343 4.94412,-1.67566 1.10719,-1.77288 1.36112,-1.81586 2.39281,-0.40493 2.48822,3.40284 3.45759,0.24851 3.45759,-11.25095 0,-10.38235 0.17946,-11.50185 2,-12.47617 1.62544,-0.86991 2,-2.09382 2,-6.53518 v -5.46482 h 6.39514 6.39514 l -1.81652,5.83647 c -6.59887,21.20221 -4.69725,47.11409 4.97439,67.78236 9.90635,21.16985 27.78557,39.182 47.584,47.93781 3.00732,1.32998 5.46785,2.64881 5.46785,2.93075 0,0.77016 -87.56183,0.61745 -88.33333,-0.15406 z m 105.33333,-0.88619 c -28.31205,-6.07125 -51.14846,-23.87375 -64.07041,-49.94714 -11.04505,-22.28628 -12.67235,-45.42911 -4.84357,-68.88327 9.88356,-29.61005 34.22735,-52.29786 64.70401,-60.30257 13.08534,-3.43686 31.69848,-3.61182 43.70997,-0.41086 18.84435,5.02187 38.6549,17.96721 50.88196,33.2492 6.4776,8.09601 12.618,18.35674 12.618,21.08497 0,1.88186 -19.761,15.06822 -21.55146,14.38114 -0.747,-0.28664 -2.262,-2.29289 -3.36674,-4.45834 -3.37563,-6.6168 -13.42262,-18.46586 -20.17839,-23.79769 -14.00503,-11.05313 -23.51374,-14.65278 -38.90337,-14.72738 -11.66751,-0.0566 -18.45558,1.50157 -28.5,6.54189 -23.12311,11.60322 -37.89849,36.87935 -36.08017,61.72205 1.14165,15.59765 7.31364,28.72797 19.08017,40.59128 12.34816,12.44972 27.1656,18.52061 45.14434,18.4962 8.23876,-0.0112 11.20321,-0.48245 18.0695,-2.87255 13.8591,-4.82424 26.05245,-13.86315 35.70967,-26.47151 3.21955,-4.20341 6.34495,-7.64256 6.94529,-7.64256 1.8954,0 18.63116,17.37012 18.63116,19.33736 0,2.51913 -8.4028,12.93921 -16.67236,20.67507 -12.8573,12.02733 -28.1294,20.2372 -43.53544,23.40345 -9.48121,1.94858 -28.77668,1.96454 -37.79216,0.0313 z m 55,1.07847 c 0,-0.27325 2.5875,-1.81251 5.75,-3.42059 8.3727,-4.25736 19.4707,-12.35134 26.63536,-19.42575 7.06,-6.97097 17.6146,-20.62231 17.6146,-22.78272 0,-1.91151 -25.12486,-26.90349 -27.01386,-26.87096 -0.81736,0.0141 -3.50888,3.20973 -5.98117,7.10146 -2.47229,3.89172 -7.89594,10.29271 -12.05256,14.22441 -13.12217,12.41211 -24.38935,17.66927 -39.45237,18.40811 -16.79133,0.82361 -32.31171,-5.5392 -44.20793,-18.1237 -6.98369,-7.38774 -10.15123,-12.11004 -8.93724,-13.32403 0.38014,-0.38015 1.38134,0.29418 2.22487,1.49849 0.84354,1.20432 2.16736,2.18967 2.94182,2.18967 2.54762,0 3.47848,-3.72888 3.47848,-13.93426 0,-9.25601 0.15431,-10.06574 1.91821,-10.06574 4.98393,0 5.08179,-0.30055 5.08179,-15.60699 v -14.39301 h 9.5 c 8.62682,0 9.5,0.17257 9.5,1.87756 0,1.03265 0.65366,2.42004 1.45258,3.08308 0.87621,0.72719 1.57059,3.4541 1.75,6.87245 0.27606,5.25987 0.48313,5.6885 2.88302,5.96747 1.43883,0.16725 3.15634,-0.38715 3.87244,-1.25 0.9487,-1.14312 3.21622,-1.55056 8.62922,-1.55056 5.96956,0 7.51735,-0.3272 8.27822,-1.75 0.51471,-0.9625 1.26571,-9.2875 1.66887,-18.5 l 0.73303,-16.75 h 3.86631 3.86631 v 7.41821 c 0,8.80699 0.51025,10.44509 3.6221,11.62821 l 2.34932,0.89321 0.26429,31.17163 c 0.24104,28.42935 0.41824,31.2687 2.01429,32.27507 3.15252,1.98778 5.21152,-0.41655 5.55728,-6.48932 0.16901,-2.96836 0.73151,-5.82451 1.25,-6.34701 0.5185,-0.5225 0.94272,-6.6549 0.94272,-13.62756 0,-10.04898 0.31101,-12.93567 1.5,-13.92244 0.99963,-0.82962 1.5,-3.07413 1.5,-6.72854 0,-4.63712 0.484,-6.09475 3.13528,-9.44227 2.21724,-2.79949 3.44705,-3.64686 4.2,-2.89391 1.90767,1.90767 4.47148,1.14444 5.38758,-1.60385 l 0.88952,-2.66857 2.69381,4.59664 c 1.4816,2.52815 2.69381,5.06318 2.69381,5.63339 0,0.57021 0.82215,1.47674 1.827,2.01453 1.4477,0.7748 3.36796,-0.0477 9.24996,-3.96229 4.0827,-2.71703 7.737,-4.9412 8.1207,-4.94259 0.3838,-10e-4 0.8338,2.35996 1,5.24746 0.2961,5.14259 0.3701,5.25651 3.6176,5.56823 5.2725,0.50609 6.1847,-0.98533 6.1847,-10.11193 0,-6.12451 0.4004,-8.49126 1.6748,-9.89943 1.5664,-1.73083 1.5664,-2.07794 0,-5.36267 -1.4687,-3.07994 -1.6748,-7.86873 -1.6748,-38.9214 V 77.42453 l 9.1185,-8.05673 c 5.0152,-4.43119 9.4372,-8.05672 9.8266,-8.05672 0.3894,0 4.1611,3.54832 8.3815,7.88516 l 7.6734,7.88517 v 7.54528 c 0,7.06339 -0.1437,7.5657 -2.25,7.86484 l -2.25,0.31955 -0.5,93.5 -0.5,93.5 -40.75,0.26122 c -22.41246,0.14367 -40.74996,0.0376 -40.74996,-0.23561 z m 88.24456,-0.35325 c -0.9951,-0.63178 -1.2024,-19.54563 -1,-91.23468 l 0.2554,-90.43768 h 13.5 13.5 l 0.2554,90.43768 c 0.2024,71.68905 0,90.6029 -1,91.23468 -1.6355,1.03833 -23.8753,1.03833 -25.5108,0 z m 32.7554,-27.93181 c 0,-27.67645 0.075,-28.80649 2,-30.00848 1.7142,-1.07056 2.0214,-2.42653 2.1498,-9.49054 0.082,-4.53284 0.3473,-6.89153 0.5885,-5.24153 0.7025,4.80418 1.8897,5.5 9.3841,5.5 6.6115,0 6.8776,0.0938 6.8776,2.4234 0,1.33288 1.575,4.48677 3.5,7.00866 1.925,2.52188 3.5,5.46552 3.5,6.54141 0,2.44051 2.8448,4.02653 7.2224,4.02653 3.7005,0 8.1269,2.18329 18.4301,9.09052 8.5337,5.72092 13.6978,11.38326 16.8197,18.44247 1.3297,3.00685 2.8998,5.46701 3.4889,5.46701 0.5892,0 1.8404,-1.61286 2.7804,-3.58414 1.6148,-3.38626 1.6139,-3.63746 -0.016,-4.54969 -2.29,-1.28157 -2.1822,-3.09971 0.2747,-4.6341 1.1,-0.68696 2,-1.8651 2,-2.6181 0,-0.75299 0.6046,-1.87085 1.3435,-2.48413 1.5499,-1.28628 3.0565,-27.93229 2.0108,-35.56192 l -0.6263,-4.56792 h -34.2927 c -29.8418,0 -34.4966,-0.20396 -35.8641,-1.57143 -1.226,-1.22607 -1.5714,-3.84538 -1.5714,-11.91821 0,-5.69073 0.2731,-11.05859 0.607,-11.92857 0.5362,-1.39723 4.3771,-1.58179 32.9182,-1.58179 17.7712,0 32.9762,-0.25516 33.7889,-0.56702 1.0765,-0.41311 1.3407,-1.58804 0.9731,-4.32837 -0.2775,-2.06874 0.2194,-7.26171 1.1042,-11.53994 1.8946,-9.16177 2.0369,-13.73639 0.4756,-15.29768 -1.7007,-1.70066 -1.9801,-14.72999 -0.3634,-16.94105 1.7657,-2.41476 2.8581,-1.13231 2.9346,3.44533 0.034,2.0508 0.4685,4.3595 0.9649,5.13043 0.6065,0.94212 0.3804,1.78343 -0.6897,2.56593 -1.3683,1.00052 -1.4723,2.44193 -0.7397,10.25156 0.7206,7.68206 2.1572,13.28081 3.4078,13.28081 0.1712,0 1.7715,-0.72848 3.5563,-1.61886 2.5361,-1.26516 3.7713,-1.37908 5.6536,-0.52143 2.4335,1.10876 3.2768,4.48566 1.4086,5.64029 -0.55,0.33992 -1,1.62648 -1,2.85902 0,1.23254 -0.5098,2.75073 -1.1328,3.37376 -0.623,0.62303 -0.853,1.86172 -0.5112,2.75265 0.4863,1.26718 1.7671,1.55397 5.8828,1.31722 l 5.2612,-0.30265 0.5,-40.20097 c 0.3338,-26.83839 0.8594,-40.56002 1.5811,-41.28114 0.6935,-0.69281 5.714,-0.97935 14,-0.79903 l 12.9189,0.28114 0.2554,90.43768 c 0.2024,71.68905 0,90.6029 -1,91.23468 -0.6905,0.43836 -30.8429,0.80391 -67.0054,0.81233 l -65.75,0.0153 z m 105,-20.6329 c 0,-3.0329 -0.8773,-3.7437 -3.1315,-2.53728 -2.3411,1.25294 -2.4075,3.52863 -0.1399,4.79765 2.2506,1.2595 3.2714,0.5542 3.2714,-2.26037 z M 716.13049,206.46688 c -0.95639,-0.60687 -1.21047,-3.96949 -1,-13.23469 l 0.28215,-12.42111 44.75,-0.2603 44.75,-0.26029 v 12.90331 c 0,10.84363 -0.25249,13.00019 -1.58179,13.51029 -2.40246,0.92191 -85.73088,0.69523 -87.20036,-0.23721 z m 382.78211,-36.5308 v -5.625 h 8 8 v 5 5 h -4.875 c -2.6812,0 -6.2812,0.28125 -8,0.625 l -3.125,0.625 z m -371.99996,1.48931 c 0,-1.58713 0.67223,-4.17463 1.49384,-5.75 0.82161,-1.57537 1.49661,-4.11933 1.5,-5.65324 l 0.006,-2.78894 8.75,0.28894 8.75,0.28893 0.29044,8.25 0.29044,8.25 h -10.54044 -10.54044 v -2.88569 z m 49,1.88569 c 0,-0.55 0.675,-1 1.5,-1 0.825,0 1.5,0.45 1.5,1 0,0.55 -0.675,1 -1.5,1 -0.825,0 -1.5,-0.45 -1.5,-1 z m 11,-0.5 c 0,-0.93333 0.94444,-1.5 2.5,-1.5 1.55556,0 2.5,0.56667 2.5,1.5 0,0.93333 -0.94444,1.5 -2.5,1.5 -1.55556,0 -2.5,-0.56667 -2.5,-1.5 z M 460.34651,152.10103 c -4.33939,-9.18507 -11.29104,-19.38931 -18.59131,-27.28995 -6.14025,-6.64522 -6.40106,-7.12671 -5.14584,-9.5 0.88198,-1.66761 1.2814,-6.01437 1.19961,-13.05502 l -0.12262,-10.55502 -3.24761,-0.0921 c -5.03912,-0.14284 -19.00143,-4.0401 -26.25188,-7.32761 -22.9802,-10.41972 -42.90107,-31.6436 -51.18242,-54.53023 -5.04755,-13.94959 -6.40803,-22.90872 -5.82366,-38.35046 0.58444,-15.443586 2.64321,-24.700088 8.13942,-36.595911 23.70181,-51.299456 84.66455,-72.160039 134.33568,-45.967766 13.72611,7.237966 26.87569,18.792593 35.26773,30.990016 5.15634,7.494484 11.76806,22.434195 14.18144,32.044106 3.11824,12.416649 3.13044,35.250405 0.0249,46.615375 -7.98851,29.23462 -26.13356,51.61026 -52.30953,64.50569 -6.35406,3.13029 -20.40404,7.52571 -28.0421,8.77274 l -3.63431,0.59336 -0.16344,11.00496 c -0.1459,9.82395 0.0683,11.33036 1.99565,14.03712 1.97456,2.77302 2.2049,4.65076 2.69521,21.97143 0.29486,10.4166 0.3275,18.93927 0.0725,18.93927 -0.25498,0 -1.78383,-2.79452 -3.39746,-6.21005 z M 447.27427,49.81108 c -0.61125,-1.59288 1.14133,-2.11325 2.06792,-0.614 0.96171,1.55608 14.72142,-1.73564 22.30049,-5.33493 21.89421,-10.39751 34.67646,-35.46024 29.86166,-58.55107 -5.41087,-25.949484 -26.98617,-44.098484 -52.55646,-44.210143 -15.69918,-0.06855 -27.49656,4.726519 -38.64491,15.707325 -11.79635,11.619072 -17.3267,26.204306 -16.07765,42.401698 1.90221,24.6673 20.16704,45.0045 44.18732,49.2009 3.85,0.67261 7.4275,1.60031 7.95,2.06157 1.35717,1.19809 1.5668,1.04601 0.91163,-0.66135 z m 559.46353,73.12926 c -3.6711,-3.96198 -9.16196,-8.98688 -12.20195,-11.16643 l -5.52723,-3.96283 -0.048,-58.25 -0.048,-58.25 h 5.53138 c 4.06302,0 5.6886,-0.40964 6.1235,-1.54313 0.8478,-2.20925 0.016,-2.685981 -5.63289,-3.228779 -3.35612,-0.32248 -5.02199,-0.937919 -5.02199,-1.85532 0,-0.978559 1.41954,-1.372771 4.9433,-1.372771 3.8426,0 5.26158,-0.454408 6.37268,-2.04077 1.4143,-2.019124 1.4349,-2.019752 1.9476,-0.05925 0.4094,1.565467 1.522,2.046455 5.2991,2.290771 5.7898,0.374499 7.484,2.809247 1.9549,2.809247 -8.6528,0 -9.72,4.70576 -1.1795,5.2008 l 5.1619,0.2992 0.2568,69.25 c 0.1413,38.0875 -0.084,69.212402 -0.5,69.166442 -0.4162,-0.046 -3.7605,-3.32519 -7.4316,-7.28718 z M 98.912636,92.18563 C 58.327386,88.39892 23.516039,58.06077 13.909184,18.10497 0.5776054,-37.342287 37.715744,-92.77351 93.867443,-101.23822 c 13.839907,-2.08633 78.860377,-2.0959 79.660147,-0.0117 0.91996,2.397361 -1.56382,12.139263 -4.69006,18.395425 -3.81343,7.631345 -12.07262,15.400133 -20.66636,19.439271 -6.71522,3.156211 -6.89311,3.180982 -27.75853,3.865134 -23.100344,0.757433 -27.710088,1.650959 -38.000004,7.365706 -7.557454,4.19721 -14.421582,10.75949 -19.543478,18.684058 -5.627031,8.706111 -7.95918,16.974451 -7.944653,28.166776 0.02112,16.27549 4.404182,27.09208 15.469154,38.17506 12.033065,12.05264 24.877943,17.11027 41.018981,16.15107 4.95,-0.29415 10.67232,-1.03478 12.71626,-1.64584 6.58461,-1.96853 6.87553,-2.71704 6.56287,-16.88618 L 130.41264,17.81108 109.76851,17.54111 C 94.038476,17.33541 88.860738,16.95347 88.016805,15.9366 86.432641,14.0278 88.272004,5.27724 91.876474,-2.42534 c 5.352202,-11.437383 17.232316,-20.501712 30.473156,-23.250499 2.94302,-0.610969 14.70719,-0.93897 28.06499,-0.78249 l 22.99802,0.269409 0.25979,47.24486 0.25979,47.24486 -6.1909,4.55748 C 146.95359,88.16134 124.21503,94.54641 98.912636,92.18563 Z M 222.91264,90.26475 c -14.1273,-5.07086 -24.96487,-17.28561 -27.99948,-31.5575 -0.65042,-3.05892 -0.93965,-19.90588 -0.77079,-44.89617 l 0.27027,-40 43,-0.5 c 40.74011,-0.473722 43.17444,-0.605111 46.31907,-2.5 9.57462,-5.769461 10.16093,-19.961442 1.10354,-26.711852 -4.23848,-3.158903 -9.32888,-3.73928 -33.01606,-3.764291 -24.60837,-0.02598 -29.55907,-0.88106 -38.19687,-6.597283 -10.25156,-6.784162 -18.52315,-20.068537 -18.97354,-30.471968 l -0.23614,-5.454606 42.76244,-0.26075 c 34.85029,-0.2125 44.10158,0.0162 50,1.23609 22.77688,4.710574 41.15675,23.042778 46.30549,46.18539 5.7531,25.859073 -7.75467,53.40661 -32.10384,65.4721 -4.65525,2.30677 -8.46409,4.47476 -8.46409,4.81775 0,0.343 14.175,14.77237 31.5,32.06528 17.325,17.29291 31.5,31.95891 31.5,32.59112 0,0.6322 -2.40186,2.80369 -5.33746,4.82552 -13.52103,9.31229 -32.25734,10.04692 -46.66254,1.82958 C 301.42481,85.154 285.9252,70.60951 269.24943,54.04597 252.07908,36.99119 238.61808,24.3751 237.99943,24.75744 c -0.74733,0.46188 -1.08679,11.11707 -1.08679,34.11266 v 33.44098 l -4.25,-0.0361 c -2.3375,-0.0198 -6.725,-0.92445 -9.75,-2.01025 z M 1068.9126,78.81108 V 65.24111 l 10.25,0.28499 10.25,0.28498 v 13 13 l -10.25,0.28498 -10.25,0.28499 z"
       id="path4518"
       inkscape:connector-curvature="0" />
    <path
       style="fill:#ef5c62"
       d="m 314.50389,280.83499 c -16.27097,-10.68681 -29.32166,-25.27655 -37.59085,-42.02391 -8.02265,-16.24803 -9.5004,-22.93652 -9.5004,-43 0,-20.00298 1.4556,-26.61094 9.47199,-43 9.49652,-19.41508 25.01428,-34.91593 44.52801,-44.47948 16.10136,-7.89117 23.71711,-9.52052 44.5,-9.52052 15.31434,0 18.49689,0.28858 25.48185,2.31055 35.41911,10.25294 60.93708,36.23012 70.741,72.01402 3.06056,11.17091 3.01862,34.32357 -0.0827,45.67543 -4.68503,17.14858 -16.29345,35.99947 -29.91531,48.57944 -6.3052,5.8229 -23.39253,17.92056 -25.31191,17.92056 -0.84398,0 -14.47423,-19.6932 -15.5244,-22.42988 -0.33929,-0.8842 2.6773,-3.56008 8.54041,-7.5758 23.97759,-16.42257 37.46684,-40.37133 35.63983,-63.27482 -2.24713,-28.17005 -21.06115,-51.64697 -49.17862,-61.36716 -6.97325,-2.41065 -9.34274,-2.72528 -20.39015,-2.70753 -14.71668,0.0237 -23.2585,2.31039 -35.25728,9.43873 -8.54156,5.07445 -19.92694,16.25214 -24.56351,24.11543 -11.57657,19.63306 -12.67576,42.86874 -2.94722,62.30103 6.81719,13.61702 16.70106,24.61566 29.64607,32.98974 3.91707,2.53394 7.11994,5.14786 7.11749,5.80871 -0.005,1.45338 -16.65634,22.70155 -17.78988,22.70155 -0.4397,0 -3.86619,-2.01424 -7.61442,-4.47609 z m -107.12033,-0.74706 c -0.2678,-0.70227 -0.37082,-42.22685 -0.22892,-92.27685 l 0.258,-91 h 15 15 v 92 92 l -14.77108,0.27685 c -11.26644,0.21117 -14.88661,-0.0261 -15.258,-1 z m 710.52908,-1.66877 c -30.8723,-6.84975 -55.4551,-27.52256 -66.94821,-56.29982 -4.9971,-12.51211 -6.35728,-21.20885 -5.83079,-37.28114 0.40813,-12.45907 0.81896,-15.08909 3.67517,-23.52712 11.04278,-32.62346 37.09012,-55.90424 69.9722,-62.54027 10.26707,-2.07202 30.47681,-1.57691 39.62038,0.97065 7.95972,2.21772 23.42149,9.61029 29.84476,14.26936 7.26558,5.27002 16.17285,13.83794 21.10435,20.30026 6.2696,8.21587 11.8216,17.88135 11.2007,19.4994 -0.3017,0.78629 -5.133,4.48194 -10.7362,8.21257 -9.4982,6.32391 -10.26256,6.65422 -11.29496,4.88063 -12.66744,-21.76072 -30.45746,-36.75244 -48.72144,-41.05771 -20.57882,-4.85094 -42.21521,1.79242 -58.46978,17.95288 -12.72856,12.65486 -19.43225,28.19397 -19.4014,44.97233 0.0563,30.63218 22.56291,57.40119 53.13143,63.19373 14.68906,2.78349 28.68721,0.0697 43.04476,-8.34506 7.42889,-4.35395 19.31256,-15.4896 24.37628,-22.84189 2.07085,-3.00679 4.03678,-5.46688 4.36872,-5.46688 0.33193,0 4.86109,4.27538 10.06479,9.50085 10.9104,10.9559 10.8456,9.09663 0.7453,21.3717 -11.57974,14.07327 -32.06979,27.35957 -48.74606,31.6083 -10.24776,2.61089 -30.65257,2.92305 -41,0.62723 z M 13.384595,278.0908 c -0.268443,-0.70385 -0.371952,-41.32972 -0.230019,-90.27972 l 0.25806,-89 h 61.522115 61.522119 l 6.85131,3.37342 c 12.72765,6.2668 22.97731,19.54294 27.11898,35.12658 1.90377,7.1632 1.91042,23.20608 0.0123,29.59786 -0.81027,2.72847 -3.96027,8.74112 -7,13.36143 -3.03977,4.62031 -5.52682,8.68863 -5.52682,9.04071 0,0.35208 2.44448,4.35569 5.43218,8.89692 7.22224,10.97762 8.56782,15.25403 8.56782,27.2296 0,22.10743 -10.83902,40.71136 -28.9467,49.68366 l -7.4467,3.68982 -60.823287,0.27972 c -48.693545,0.22393 -60.920615,0.0245 -61.311358,-1 z M 129.50542,251.70003 c 10.92979,-5.18652 17.21259,-24.95068 11.59355,-36.47044 -1.18538,-2.43018 -3.9086,-6.44351 -6.05159,-8.91851 l -3.89634,-4.5 -18.8692,-0.5 -18.869204,-0.5 v -12.5 -12.5 l 18.642624,-0.27167 18.64261,-0.27167 4.03634,-4.37892 c 2.21999,-2.4084 5.03763,-6.33615 6.26142,-8.72833 4.17786,-8.16658 2.299,-20.67382 -4.49652,-29.93265 -5.99044,-8.16192 -4.69868,-7.97394 -52.760599,-7.67767 l -42.325875,0.26091 -0.259211,63 c -0.142566,34.65 -0.04419,63.5625 0.218615,64.25 0.37181,0.97266 9.825385,1.25 42.608082,1.25 36.668278,0 42.570408,-0.20887 45.525298,-1.61105 z m 408.40722,-48.30716 c 0,-41.75502 -0.27314,-76.63002 -0.60699,-77.5 -0.535,-1.39418 -4.19725,-1.58179 -30.87755,-1.58179 -24.65517,0 -30.48505,-0.25844 -31.42677,-1.39313 -0.7653,-0.92214 -1.06026,-5.2327 -0.87244,-12.75 l 0.28375,-11.35687 77.27992,-0.25618 77.27993,-0.25617 -0.27993,12.75617 -0.27992,12.75618 -30.95009,0.26474 c -23.23212,0.19872 -31.14575,0.57278 -31.73469,1.5 -0.43153,0.67939 -0.79149,35.54776 -0.79991,77.48526 l -0.0153,76.25 h -13.5 -13.5 z m 132,-14.58179 V 98.2972 l 68.25,0.25694 68.25,0.25694 0.28046,11.60228 c 0.21469,8.88161 -0.0413,11.86934 -1.09181,12.74116 -0.97978,0.81314 -16.64776,1.21291 -54.78046,1.39772 l -53.40819,0.25884 v 64 64 l 54.5,0.5 54.5,0.5 v 12.5 12.5 l -68.25,0.25694 -68.25,0.25694 z m 390.47166,89.27917 c -0.2683,-0.70355 -0.3717,-41.32917 -0.2298,-90.27917 l 0.2581,-89 h 13.5 13.5 v 90 90 l -13.2702,0.27917 c -10.0633,0.2117 -13.3881,-0.03 -13.7581,-1 z m 160.2446,0.52719 c -0.2592,-0.4435 -1.2195,-3.41246 -2.1338,-6.5977 -1.0214,-3.55811 -2.9967,-7.2682 -5.1225,-9.6212 -1.9272,-2.13327 -3.46,-4.89595 -3.46,-6.23642 0,-1.32361 -0.7875,-3.16587 -1.75,-4.09392 -4.5603,-4.39711 -5.2516,-5.61961 -5.2818,-9.34101 -0.017,-2.15386 -0.6925,-4.78962 -1.5,-5.85724 -1.8385,-2.43072 -1.9137,-10.46074 -0.1226,-13.08636 1.0315,-1.51206 1.1567,-3.83999 0.5363,-9.97251 l -0.8093,-8 3.4637,-5.07318 c 4.0287,-5.9007 4.1306,-6.5133 1.4825,-8.90984 -1.5931,-1.44166 -2.2703,-1.55314 -3.4562,-0.5689 -1.9334,1.60453 -3.175,0.73192 -5.5317,-3.88748 -1.1026,-2.16122 -2.9241,-4.06092 -4.2184,-4.39939 -3.0973,-0.80994 -1.279,-2.42989 3.1875,-2.83991 l 3.5,-0.3213 0.2612,-40.77815 0.2613,-40.77814 13.7387,0.27814 13.7388,0.27815 v 90 90 l -3.1562,0.30636 c -1.7358,0.1685 -3.3682,-0.0565 -3.6275,-0.5 z M 715.35074,205.01036 c -0.27893,-0.72686 -0.3791,-6.46905 -0.22262,-12.76042 l 0.28452,-11.43886 h 44.5 44.5 v 12.5 12.5 l -44.27739,0.26042 c -35.96162,0.21151 -44.37263,0.0122 -44.78451,-1.06114 z m 389.99596,-0.0104 c -0.2767,-0.72113 -0.3751,-6.45863 -0.2186,-12.75 l 0.2845,-11.43888 h 33.3859 33.386 l 1.382,5.40031 c 1.0043,3.9241 1.1292,6.79149 0.4571,10.48949 -0.5308,2.92036 -0.5535,5.78341 -0.053,6.71821 0.4795,0.89596 0.5877,1.91319 0.2403,2.26051 -0.3473,0.34731 -15.8706,0.63148 -34.4962,0.63148 -27.0115,0 -33.9665,-0.26534 -34.3678,-1.31114 z M 98.912636,92.18563 C 58.327386,88.39892 23.516039,58.06077 13.909184,18.10497 0.5776054,-37.342287 37.715744,-92.77351 93.867443,-101.23822 c 13.839907,-2.08633 78.860377,-2.0959 79.660147,-0.0117 0.91996,2.397361 -1.56382,12.139263 -4.69006,18.395425 -3.81343,7.631345 -12.07262,15.400133 -20.66636,19.439271 -6.71522,3.156211 -6.89311,3.180982 -27.75853,3.865134 -23.100344,0.757433 -27.710088,1.650959 -38.000004,7.365706 -7.557454,4.19721 -14.421582,10.75949 -19.543478,18.684058 -5.627031,8.706111 -7.95918,16.974451 -7.944653,28.166776 0.02112,16.27549 4.404182,27.09208 15.469154,38.17506 12.033065,12.05264 24.877943,17.11027 41.018981,16.15107 4.95,-0.29415 10.67232,-1.03478 12.71626,-1.64584 6.58461,-1.96853 6.87553,-2.71704 6.56287,-16.88618 L 130.41264,17.81108 109.76851,17.54111 C 94.038476,17.33541 88.860738,16.95347 88.016805,15.9366 86.432641,14.0278 88.272004,5.27724 91.876474,-2.42534 c 5.352202,-11.437383 17.232316,-20.501712 30.473156,-23.250499 2.94302,-0.610969 14.70719,-0.93897 28.06499,-0.78249 l 22.99802,0.269409 0.25979,47.24486 0.25979,47.24486 -6.1909,4.55748 C 146.95359,88.16134 124.21503,94.54641 98.912636,92.18563 Z M 222.91264,90.26475 c -14.1273,-5.07086 -24.96487,-17.28561 -27.99948,-31.5575 -0.65042,-3.05892 -0.93965,-19.90588 -0.77079,-44.89617 l 0.27027,-40 43,-0.5 c 40.74011,-0.473722 43.17444,-0.605111 46.31907,-2.5 9.57462,-5.769461 10.16093,-19.961442 1.10354,-26.711852 -4.23848,-3.158903 -9.32888,-3.73928 -33.01606,-3.764291 -24.60837,-0.02598 -29.55907,-0.88106 -38.19687,-6.597283 -10.25156,-6.784162 -18.52315,-20.068537 -18.97354,-30.471968 l -0.23614,-5.454606 42.76244,-0.26075 c 34.85029,-0.2125 44.10158,0.0162 50,1.23609 22.77688,4.710574 41.15675,23.042778 46.30549,46.18539 5.7531,25.859073 -7.75467,53.40661 -32.10384,65.4721 -4.65525,2.30677 -8.46409,4.47476 -8.46409,4.81775 0,0.343 14.175,14.77237 31.5,32.06528 17.325,17.29291 31.5,31.95891 31.5,32.59112 0,0.6322 -2.40186,2.80369 -5.33746,4.82552 -13.52103,9.31229 -32.25734,10.04692 -46.66254,1.82958 C 301.42481,85.154 285.9252,70.60951 269.24943,54.04597 252.07908,36.99119 238.61808,24.3751 237.99943,24.75744 c -0.74733,0.46188 -1.08679,11.11707 -1.08679,34.11266 v 33.44098 l -4.25,-0.0361 c -2.3375,-0.0198 -6.725,-0.92445 -9.75,-2.01025 z m 209.5,1.36972 C 422.30143,89.38674 413.6656,86.76556 408.18686,84.28138 385.20666,73.86166 365.28579,52.63778 357.00444,29.75115 351.95689,15.80156 350.59641,6.84243 351.18078,-8.59931 c 0.58444,-15.443586 2.64321,-24.700088 8.13942,-36.595911 23.70181,-51.299456 84.66455,-72.160039 134.33568,-45.967766 13.72611,7.237966 26.87569,18.792593 35.26773,30.990016 5.15634,7.494484 11.76806,22.434195 14.18144,32.044106 3.11824,12.416649 3.13044,35.250405 0.0249,46.615375 -9.5291,34.87254 -34.27807,60.6754 -67.28136,70.14644 -12.27058,3.52131 -17.33258,4.11009 -18.91753,2.20034 -0.70939,-0.85476 -1.89252,-5.70943 -2.62918,-10.78816 -0.73666,-5.07873 -1.79947,-11.03405 -2.3618,-13.23405 -0.56233,-2.2 -1.13605,-6.88919 -1.27493,-10.42041 l -0.25252,-6.42042 6.91516,-1.29699 c 29.76009,-5.58175 50.13199,-34.80106 44.17655,-63.36218 -5.41087,-25.949484 -26.98617,-44.098484 -52.55646,-44.210143 -15.69918,-0.06855 -27.49656,4.726519 -38.64491,15.707325 -11.79635,11.619072 -17.3267,26.204306 -16.07765,42.401698 1.90203,24.66501 20.14888,44.98496 44.18732,49.20763 9.19017,1.61437 9.83703,2.15111 7.97198,6.6148 -0.80959,1.93762 -1.48629,4.70548 -1.50378,6.15081 -0.0175,1.44534 -0.6925,3.50139 -1.5,4.56901 -0.80751,1.06762 -1.4682,2.98623 -1.4682,4.26357 0,1.27734 -0.42515,3.10383 -0.94477,4.05887 -0.51962,0.95504 -1.39311,5.06849 -1.94108,9.141 -0.86037,6.3942 -2.21535,9.34649 -4.11415,8.96412 -0.275,-0.0554 -1.4,-0.30076 -2.5,-0.5453 z"
       id="path4516"
       inkscape:connector-curvature="0" />
    <path
       style="fill:#625d93"
       d="m 314.50389,280.83499 c -16.27097,-10.68681 -29.32166,-25.27655 -37.59085,-42.02391 -8.02265,-16.24803 -9.5004,-22.93652 -9.5004,-43 0,-20.00298 1.4556,-26.61094 9.47199,-43 9.49652,-19.41508 25.01428,-34.91593 44.52801,-44.47948 16.10136,-7.89117 23.71711,-9.52052 44.5,-9.52052 15.31434,0 18.49689,0.28858 25.48185,2.31055 35.41911,10.25294 60.93708,36.23012 70.741,72.01402 3.06056,11.17091 3.01862,34.32357 -0.0827,45.67543 -4.68503,17.14858 -16.29345,35.99947 -29.91531,48.57944 -6.3052,5.8229 -23.39253,17.92056 -25.31191,17.92056 -0.84398,0 -14.47423,-19.6932 -15.5244,-22.42988 -0.33929,-0.8842 2.6773,-3.56008 8.54041,-7.5758 23.97759,-16.42257 37.46684,-40.37133 35.63983,-63.27482 -2.24713,-28.17005 -21.06115,-51.64697 -49.17862,-61.36716 -6.97325,-2.41065 -9.34274,-2.72528 -20.39015,-2.70753 -14.71668,0.0237 -23.2585,2.31039 -35.25728,9.43873 -8.54156,5.07445 -19.92694,16.25214 -24.56351,24.11543 -11.57657,19.63306 -12.67576,42.86874 -2.94722,62.30103 6.81719,13.61702 16.70106,24.61566 29.64607,32.98974 3.91707,2.53394 7.11994,5.14786 7.11749,5.80871 -0.005,1.45338 -16.65634,22.70155 -17.78988,22.70155 -0.4397,0 -3.86619,-2.01424 -7.61442,-4.47609 z m -107.12033,-0.74706 c -0.2678,-0.70227 -0.37082,-42.22685 -0.22892,-92.27685 l 0.258,-91 h 15 15 v 92 92 l -14.77108,0.27685 c -11.26644,0.21117 -14.88661,-0.0261 -15.258,-1 z m 710.52908,-1.66877 c -30.8723,-6.84975 -55.4551,-27.52256 -66.94821,-56.29982 -4.9971,-12.51211 -6.35728,-21.20885 -5.83079,-37.28114 0.40813,-12.45907 0.81896,-15.08909 3.67517,-23.52712 11.04278,-32.62346 37.09012,-55.90424 69.9722,-62.54027 10.26707,-2.07202 30.47681,-1.57691 39.62038,0.97065 7.95972,2.21772 23.42149,9.61029 29.84476,14.26936 7.26558,5.27002 16.17285,13.83794 21.10435,20.30026 6.2696,8.21587 11.8216,17.88135 11.2007,19.4994 -0.3017,0.78629 -5.133,4.48194 -10.7362,8.21257 -9.4982,6.32391 -10.26256,6.65422 -11.29496,4.88063 -12.66744,-21.76072 -30.45746,-36.75244 -48.72144,-41.05771 -20.57882,-4.85094 -42.21521,1.79242 -58.46978,17.95288 -12.72856,12.65486 -19.43225,28.19397 -19.4014,44.97233 0.0563,30.63218 22.56291,57.40119 53.13143,63.19373 14.68906,2.78349 28.68721,0.0697 43.04476,-8.34506 7.42889,-4.35395 19.31256,-15.4896 24.37628,-22.84189 2.07085,-3.00679 4.03678,-5.46688 4.36872,-5.46688 0.33193,0 4.86109,4.27538 10.06479,9.50085 10.9104,10.9559 10.8456,9.09663 0.7453,21.3717 -11.57974,14.07327 -32.06979,27.35957 -48.74606,31.6083 -10.24776,2.61089 -30.65257,2.92305 -41,0.62723 z M 13.384595,278.0908 c -0.268443,-0.70385 -0.371952,-41.32972 -0.230019,-90.27972 l 0.25806,-89 h 61.522115 61.522119 l 6.85131,3.37342 c 12.72765,6.2668 22.97731,19.54294 27.11898,35.12658 1.90377,7.1632 1.91042,23.20608 0.0123,29.59786 -0.81027,2.72847 -3.96027,8.74112 -7,13.36143 -3.03977,4.62031 -5.52682,8.68863 -5.52682,9.04071 0,0.35208 2.44448,4.35569 5.43218,8.89692 7.22224,10.97762 8.56782,15.25403 8.56782,27.2296 0,22.10743 -10.83902,40.71136 -28.9467,49.68366 l -7.4467,3.68982 -60.823287,0.27972 c -48.693545,0.22393 -60.920615,0.0245 -61.311358,-1 z M 129.50542,251.70003 c 10.92979,-5.18652 17.21259,-24.95068 11.59355,-36.47044 -1.18538,-2.43018 -3.9086,-6.44351 -6.05159,-8.91851 l -3.89634,-4.5 -18.8692,-0.5 -18.869204,-0.5 v -12.5 -12.5 l 18.642624,-0.27167 18.64261,-0.27167 4.03634,-4.37892 c 2.21999,-2.4084 5.03763,-6.33615 6.26142,-8.72833 4.17786,-8.16658 2.299,-20.67382 -4.49652,-29.93265 -5.99044,-8.16192 -4.69868,-7.97394 -52.760599,-7.67767 l -42.325875,0.26091 -0.259211,63 c -0.142566,34.65 -0.04419,63.5625 0.218615,64.25 0.37181,0.97266 9.825385,1.25 42.608082,1.25 36.668278,0 42.570408,-0.20887 45.525298,-1.61105 z m 408.40722,-48.30716 c 0,-41.75502 -0.27314,-76.63002 -0.60699,-77.5 -0.535,-1.39418 -4.19725,-1.58179 -30.87755,-1.58179 -24.65517,0 -30.48505,-0.25844 -31.42677,-1.39313 -0.7653,-0.92214 -1.06026,-5.2327 -0.87244,-12.75 l 0.28375,-11.35687 77.27992,-0.25618 77.27993,-0.25617 -0.27993,12.75617 -0.27992,12.75618 -30.95009,0.26474 c -23.23212,0.19872 -31.14575,0.57278 -31.73469,1.5 -0.43153,0.67939 -0.79149,35.54776 -0.79991,77.48526 l -0.0153,76.25 h -13.5 -13.5 z m 132,-14.58179 V 98.2972 l 68.25,0.25694 68.25,0.25694 0.28046,11.60228 c 0.21469,8.88161 -0.0413,11.86934 -1.09181,12.74116 -0.97978,0.81314 -16.64776,1.21291 -54.78046,1.39772 l -53.40819,0.25884 v 64 64 l 54.5,0.5 54.5,0.5 v 12.5 12.5 l -68.25,0.25694 -68.25,0.25694 z m 390.47166,89.27917 c -0.2683,-0.70355 -0.3717,-41.32917 -0.2298,-90.27917 l 0.2581,-89 h 13.5 13.5 v 90 90 l -13.2702,0.27917 c -10.0633,0.2117 -13.3881,-0.03 -13.7581,-1 z m 160.2446,0.52719 c -0.2592,-0.4435 -1.2195,-3.41246 -2.1338,-6.5977 -1.0214,-3.55811 -2.9967,-7.2682 -5.1225,-9.6212 -1.9272,-2.13327 -3.46,-4.89595 -3.46,-6.23642 0,-1.32361 -0.7875,-3.16587 -1.75,-4.09392 -4.5603,-4.39711 -5.2516,-5.61961 -5.2818,-9.34101 -0.017,-2.15386 -0.6925,-4.78962 -1.5,-5.85724 -1.8385,-2.43072 -1.9137,-10.46074 -0.1226,-13.08636 1.0315,-1.51206 1.1567,-3.83999 0.5363,-9.97251 l -0.8093,-8 3.4637,-5.07318 c 4.0287,-5.9007 4.1306,-6.5133 1.4825,-8.90984 -1.5931,-1.44166 -2.2703,-1.55314 -3.4562,-0.5689 -1.9334,1.60453 -3.175,0.73192 -5.5317,-3.88748 -1.1026,-2.16122 -2.9241,-4.06092 -4.2184,-4.39939 -3.0973,-0.80994 -1.279,-2.42989 3.1875,-2.83991 l 3.5,-0.3213 0.2612,-40.77815 0.2613,-40.77814 13.7387,0.27814 13.7388,0.27815 v 90 90 l -3.1562,0.30636 c -1.7358,0.1685 -3.3682,-0.0565 -3.6275,-0.5 z M 715.35074,205.01036 c -0.27893,-0.72686 -0.3791,-6.46905 -0.22262,-12.76042 l 0.28452,-11.43886 h 44.5 44.5 v 12.5 12.5 l -44.27739,0.26042 c -35.96162,0.21151 -44.37263,0.0122 -44.78451,-1.06114 z m 389.99596,-0.0104 c -0.2767,-0.72113 -0.3751,-6.45863 -0.2186,-12.75 l 0.2845,-11.43888 h 33.3859 33.386 l 1.382,5.40031 c 1.0043,3.9241 1.1292,6.79149 0.4571,10.48949 -0.5308,2.92036 -0.5535,5.78341 -0.053,6.71821 0.4795,0.89596 0.5877,1.91319 0.2403,2.26051 -0.3473,0.34731 -15.8706,0.63148 -34.4962,0.63148 -27.0115,0 -33.9665,-0.26534 -34.3678,-1.31114 z M 89.912636,89.87311 C 50.764788,81.64169 21.963018,52.47788 13.807262,12.81108 12.016685,4.10232 12.297547,-15.631167 14.346797,-25.096869 18.079171,-42.3371 26.025557,-57.344076 38.350694,-70.428913 54.27587,-87.335689 72.163927,-96.760028 94.912636,-100.22862 c 10.924794,-1.66575 76.470524,-2.12604 77.448354,-0.54387 0.31151,0.50403 0.0609,3.316534 -0.55692,6.249998 -2.73347,12.978814 -11.38458,23.997229 -23.53978,29.981228 l -6.80956,3.352344 -21.52104,0.659614 c -11.83658,0.362787 -23.321054,1.201939 -25.521054,1.864782 -24.23233,7.30101 -40.860786,29.266592 -40.860786,53.975604 0,24.30212 15.619091,45.33916 39.09722,52.65927 7.39954,2.30705 9.48708,2.54151 18.55069,2.08348 10.06093,-0.50844 18.37088,-2.60492 19.90675,-5.02219 0.42653,-0.67131 0.7824,-7.16723 0.79082,-14.43538 0.014,-12.05037 -0.15513,-13.30603 -1.91895,-14.25 -1.14876,-0.61479 -10.07275,-1.03518 -21.975,-1.03518 H 87.962636 l 0.578012,-3.25 c 2.593855,-14.58452 8.265002,-23.474 19.697472,-30.875623 9.12339,-5.906676 16.00148,-6.99227 42.17452,-6.656561 l 22,0.282184 0.2602,45.90999 c 0.29517,52.08201 1.15403,46.82935 -8.7602,53.57588 -8.32132,5.66257 -18.93851,10.70527 -28.71168,13.63678 -7.43384,2.22982 -11.10016,2.68773 -23.78832,2.9711 -10.06466,0.22478 -17.138651,-0.11468 -21.500004,-1.03172 z m 134.486944,-0.3608 c -15.03012,-5.19729 -25.37805,-16.71476 -28.48214,-31.70123 -0.63988,-3.08933 -0.9342,-19.90319 -0.77021,-44 l 0.26541,-39 43.1781,-0.5 c 41.83967,-0.484501 43.26557,-0.564846 46,-2.591948 3.74337,-2.775055 7.13128,-7.875032 7.87897,-11.860578 1.31466,-7.007729 -3.59092,-15.840774 -10.47111,-18.854402 -1.59811,-0.699994 -12.73086,-1.335226 -29.14282,-1.662881 l -26.55686,-0.530191 -7.55169,-3.73472 c -8.01674,-3.964705 -13.66955,-9.214771 -18.14586,-16.853031 -2.90199,-4.951861 -6.14674,-16.276304 -5.29762,-18.489089 0.84986,-2.2147 80.5057,-2.07703 91.40105,0.15798 31.5461,6.471166 52.34349,37.526343 45.81954,68.41886 -3.99744,18.928865 -18.5026,36.59676 -35.27145,42.9621 -2.39567,0.90938 -4.90223,2.19988 -5.57013,2.86778 -0.95248,0.95248 5.75807,8.18926 31.11747,33.55767 l 32.33183,32.34331 -3.4019,2.59476 c -1.87105,1.42711 -6.08292,3.84981 -9.35971,5.38377 -5.33932,2.49949 -7.04783,2.78808 -16.45781,2.77997 -17.6474,-0.0152 -17.52531,0.0673 -55.17412,-37.28334 -17.95593,-17.81372 -32.24837,-31.23198 -33,-30.9816 -1.05973,0.35301 -1.3787,7.30009 -1.58901,34.60862 l -0.26313,34.16696 -3.23687,-0.0326 c -1.78028,-0.018 -5.49275,-0.81271 -8.24993,-1.76612 z m 233.80183,0.51602 c -0.43382,-0.66949 -1.54221,-5.94225 -2.46308,-11.71725 -0.92086,-5.775 -2.36472,-14.09614 -3.20857,-18.49143 -0.84384,-4.39529 -1.2154,-8.25062 -0.82569,-8.56741 0.38971,-0.31679 3.63357,-1.14069 7.20857,-1.8309 25.02061,-4.83059 44.96527,-28.83158 44.96527,-54.11026 0,-17.693148 -10.29738,-36.388343 -25.65912,-46.584884 -16.17073,-10.733523 -37.65129,-11.86151 -55.3256,-2.905259 -11.5683,5.862101 -22.06887,17.929217 -26.96701,30.990143 -3.06846,8.182057 -3.76624,21.66685 -1.59826,30.88672 4.90684,20.8676 22.95001,38.14421 43.6605,41.80559 3.53332,0.62465 6.7925,1.4527 7.24262,1.84011 0.45013,0.38741 0.11263,2.39356 -0.75,4.45811 -0.86262,2.06454 -1.5684,4.73376 -1.5684,5.93159 0,1.19784 -0.37886,2.60538 -0.84191,3.12788 -1.12019,1.264 -3.9845,12.57882 -4.92372,19.45 -0.6935,5.07361 -0.96997,5.52508 -3.56614,5.82347 -6.73818,0.77447 -28.31255,-7.45348 -39.66823,-15.12851 -18.52931,-12.52351 -33.30439,-33.43056 -39.1095,-55.34078 -2.60799,-9.84336 -3.56944,-29.02189 -1.97288,-39.35418 5.5735,-36.069389 31.57768,-66.254062 66.58238,-77.286335 49.88744,-15.722795 103.88106,11.897961 120.312,61.546337 15.26485,46.124818 -5.73695,96.059968 -49.34351,117.322108 -11.87589,5.79057 -30.62722,10.53097 -32.17972,8.13514 z"
       id="path4514"
       inkscape:connector-curvature="0" />
    <path
       style="fill:#ec1b23"
       d="m 312.8407,278.23255 c -19.68404,-13.45789 -34.62804,-33.77131 -41.55301,-56.48311 -2.49163,-8.17181 -2.72672,-10.35339 -2.74125,-25.43836 -0.0187,-19.36441 1.50767,-26.53844 8.92516,-41.94997 10.19841,-21.18954 25.29404,-36.01887 47.03843,-46.20864 12.56075,-5.88617 21.72551,-7.98033 37.40261,-8.54657 29.48127,-1.06484 52.16058,7.85618 73,28.71491 14.18445,14.19758 22.19165,28.50523 26.63862,47.59909 2.62087,11.25323 2.37265,31.01833 -0.52609,41.89118 -4.57476,17.15934 -14.87334,34.19453 -28.69302,47.46198 -8.24079,7.91149 -22.31533,18.03802 -25.07045,18.03802 -1.37955,0 -14.34906,-18.80853 -14.34906,-20.80916 0,-0.57048 3.15568,-3.13514 7.01262,-5.69923 18.31991,-12.17905 30.42486,-28.15232 35.05552,-46.25805 3.73598,-14.60754 1.92321,-28.72148 -5.68128,-44.23356 -3.95148,-8.06045 -6.04408,-10.8791 -13.80968,-18.60107 -7.6465,-7.60353 -10.70947,-9.86964 -18.61484,-13.77202 -20.13681,-9.94026 -40.92594,-10.20388 -60.46234,-0.7667 -23.8437,11.51785 -38.68202,32.72928 -41.10073,58.75361 -2.23386,24.03547 15.12182,53.80773 39.34303,67.48979 2.33326,1.31802 4.24576,2.7369 4.25,3.15309 0.0171,1.68122 -15.60429,20.60494 -17.06424,20.67156 -0.86456,0.0395 -4.91456,-2.2136 -9,-5.00679 z m -103.78774,0.74761 c -0.85349,-1.02839 -1.08504,-24.62585 -0.89569,-91.27801 l 0.25537,-89.89107 h 14 14 v 91 91 l -13.10431,0.27801 c -10.21499,0.21671 -13.3581,-0.0278 -14.25537,-1.10893 z m 714.35968,-0.70817 C 903.21741,275.12384 885.138,265.61253 870.79795,250.59218 828.12253,205.89224 842.1617,132.70526 898.39571,106.72355 c 13.41867,-6.19981 21.27987,-7.8506 37.51693,-7.87829 10.74914,-0.0183 16.13007,0.4248 20.80152,1.71305 25.44668,7.01749 45.32434,22.41752 59.62504,46.19394 1.9654,3.26765 3.5734,6.24569 3.5734,6.61787 0,0.85893 -18.2673,12.94096 -19.566,12.94096 -0.53166,0 -2.42396,-2.43631 -4.20497,-5.41403 -10.50956,-17.57081 -27.98187,-31.51671 -45.22899,-36.10049 -11.75813,-3.12497 -31.04707,-1.0324 -42.16908,4.57473 -17.60036,8.87317 -31.60527,25.99868 -36.342,44.43979 -1.8211,7.08997 -2.04276,20.76928 -0.4618,28.5 0.61862,3.025 3.19284,9.73251 5.72049,14.90557 7.7421,15.84489 21.54667,27.97109 38.41747,33.74666 9.9197,3.39593 23.88645,4.22449 32.83492,1.9479 17.19434,-4.37443 34.87044,-16.94848 44.77363,-31.85013 1.37068,-2.0625 3.02752,-3.75 3.68187,-3.75 0.6544,0 4.90556,3.80698 9.44726,8.45997 l 8.2576,8.45996 -1.8302,3.11467 c -3.2798,5.58167 -15.65216,18.20504 -23.68238,24.16284 -9.63368,7.14743 -19.87431,12.1706 -30.26962,14.84765 -9.12536,2.35001 -26.97762,3.30328 -35.87816,1.91582 z M 14.912636,188.78117 V 99.25126 l 60.303318,0.27991 60.303326,0.27991 7.60473,3.75918 c 9.53548,4.71359 16.62274,12.18517 21.89215,23.0793 4.87537,10.07947 6.20957,16.75693 5.71339,28.5948 -0.4517,10.7768 -2.58241,16.63773 -9.77764,26.89524 -2.2216,3.1671 -4.03927,6.34999 -4.03927,7.07308 0,0.72309 2.20863,4.61689 4.90807,8.65289 6.95738,10.40214 9.09521,16.69825 9.07715,26.73302 -0.044,24.44816 -13.79884,45.55927 -33.68605,51.7018 -6.20371,1.91614 -9.23237,2.01069 -64.404509,2.01069 H 14.912636 Z m 116.482334,63.09314 c 7.78288,-4.56108 12.70743,-14.51128 12.8992,-26.06323 0.0995,-5.99592 -0.30389,-7.75857 -2.81249,-12.2884 -1.61079,-2.90862 -4.86272,-7.07112 -7.22653,-9.25 l -4.29782,-3.9616 H 111.90325 93.849165 l 0.281736,-11.75 0.281735,-11.75 18.684224,-0.27182 18.68423,-0.27183 4.019,-4.56582 c 6.26867,-7.12159 8.62489,-12.75116 8.54195,-20.40878 -0.11549,-10.66337 -6.50648,-22.14324 -14.9294,-26.81707 -2.63587,-1.46263 -8.00315,-1.70123 -44.220192,-1.96582 -28.300169,-0.20675 -41.85641,0.0394 -43.25,0.78519 -2.00744,1.07434 -2.029812,1.79499 -2.029812,65.38447 0,35.36398 0.3,64.59815 0.666667,64.96481 0.366666,0.36667 20.01463,0.66667 43.662142,0.66667 h 42.995475 z m 407.50236,-49.81323 c -0.009,-46.25263 -0.38798,-76.84011 -0.96258,-77.75 -0.80147,-1.26914 -5.64723,-1.54486 -31.48469,-1.79149 L 475.91264,122.2281 V 110.76959 99.31108 h 76 76 v 11.45907 11.45907 l -31.0374,0.29093 c -26.28243,0.24636 -31.18253,0.52073 -31.98469,1.79093 -0.57463,0.90991 -0.95331,31.49614 -0.9626,77.75 l -0.0153,76.25 h -12.5 -12.5 l -0.0153,-76.25 z m 132.01531,-13.25 v -89.5 h 67 67 v 11.5 11.5 h -51.9349 c -31.4252,0 -52.95077,0.38623 -54.5073,0.97803 l -2.5724,0.97802 0.2573,64.77198 0.2573,64.77197 54.25,0.25861 54.25,0.25861 v 11.99139 11.99139 h -67 -67 z m 390.99996,0.0308 V 99.3111 h 12.5054 12.5053 l -0.2553,89.25 -0.2554,89.25 -12.25,0.28078 -12.25,0.28078 z m 159.7088,88.84474 c -0.3898,-0.38987 -0.7088,-1.76376 -0.7088,-3.05309 0,-3.24642 -3.6035,-10.60128 -6.5505,-13.36986 -1.4936,-1.40319 -2.4495,-3.41895 -2.4495,-5.16552 0,-1.98124 -1.2332,-4.14773 -4,-7.02713 -3.3007,-3.43501 -4.0056,-4.87064 -4.0318,-8.21137 -0.017,-2.2267 -0.6925,-4.92206 -1.5,-5.98968 -1.9577,-2.58826 -1.8666,-7.98331 0.1631,-9.66787 1.3873,-1.15131 1.5336,-2.74522 0.9777,-10.65317 l -0.6537,-9.29929 3.5224,-4.61307 c 1.9372,-2.53719 3.5201,-5.11086 3.5173,-5.71927 0,-0.60841 -1.0963,-2.4562 -2.4302,-4.1062 -2.1882,-2.70671 -2.6372,-2.87102 -4.5924,-1.68071 -1.192,0.72561 -2.267,1.17561 -2.3891,1 -0.1221,-0.17561 -1.1962,-2.0206 -2.387,-4.09998 l -2.1651,-3.78069 2.4844,-0.94456 2.4844,-0.94456 V 139.83585 99.3111 h 13.0054 13.0053 l -0.2553,89.25 c -0.2547,88.99198 -0.2613,89.25084 -2.2966,89.54218 -1.1226,0.1607 -2.3601,-0.0268 -2.75,-0.41666 z M 716.91264,193.31108 v -12.02125 l 43.25,0.26063 43.25,0.26062 v 11.5 11.5 l -43.25,0.26062 -43.25,0.26063 z m 389.21826,0.25 0.2817,-11.75 h 32.483 32.4831 l 0.7104,4 c 0.3907,2.2 0.4462,7.4875 0.1232,11.75 l -0.5873,7.75 h -32.8879 -32.888 z M 89.912636,89.87311 C 50.764788,81.64169 21.963018,52.47788 13.807262,12.81108 12.016685,4.10232 12.297547,-15.631167 14.346797,-25.096869 18.079171,-42.3371 26.025557,-57.344076 38.350694,-70.428913 54.27587,-87.335689 72.163927,-96.760028 94.912636,-100.22862 c 10.924794,-1.66575 76.470524,-2.12604 77.448354,-0.54387 0.31151,0.50403 0.0609,3.316534 -0.55692,6.249998 -2.73347,12.978814 -11.38458,23.997229 -23.53978,29.981228 l -6.80956,3.352344 -21.52104,0.659614 c -11.83658,0.362787 -23.321054,1.201939 -25.521054,1.864782 -24.23233,7.30101 -40.860786,29.266592 -40.860786,53.975604 0,24.30212 15.619091,45.33916 39.09722,52.65927 7.39954,2.30705 9.48708,2.54151 18.55069,2.08348 10.06093,-0.50844 18.37088,-2.60492 19.90675,-5.02219 0.42653,-0.67131 0.7824,-7.16723 0.79082,-14.43538 0.014,-12.05037 -0.15513,-13.30603 -1.91895,-14.25 -1.14876,-0.61479 -10.07275,-1.03518 -21.975,-1.03518 H 87.962636 l 0.578012,-3.25 c 2.593855,-14.58452 8.265002,-23.474 19.697472,-30.875623 9.12339,-5.906676 16.00148,-6.99227 42.17452,-6.656561 l 22,0.282184 0.2602,45.90999 c 0.29517,52.08201 1.15403,46.82935 -8.7602,53.57588 -8.32132,5.66257 -18.93851,10.70527 -28.71168,13.63678 -7.43384,2.22982 -11.10016,2.68773 -23.78832,2.9711 -10.06466,0.22478 -17.138651,-0.11468 -21.500004,-1.03172 z m 134.486944,-0.3608 c -15.03012,-5.19729 -25.37805,-16.71476 -28.48214,-31.70123 -0.63988,-3.08933 -0.9342,-19.90319 -0.77021,-44 l 0.26541,-39 43.1781,-0.5 c 41.83967,-0.484501 43.26557,-0.564846 46,-2.591948 3.74337,-2.775055 7.13128,-7.875032 7.87897,-11.860578 1.31466,-7.007729 -3.59092,-15.840774 -10.47111,-18.854402 -1.59811,-0.699994 -12.73086,-1.335226 -29.14282,-1.662881 l -26.55686,-0.530191 -7.55169,-3.73472 c -8.01674,-3.964705 -13.66955,-9.214771 -18.14586,-16.853031 -2.90199,-4.951861 -6.14674,-16.276304 -5.29762,-18.489089 0.84986,-2.2147 80.5057,-2.07703 91.40105,0.15798 31.5461,6.471166 52.34349,37.526343 45.81954,68.41886 -3.99744,18.928865 -18.5026,36.59676 -35.27145,42.9621 -2.39567,0.90938 -4.90223,2.19988 -5.57013,2.86778 -0.95248,0.95248 5.75807,8.18926 31.11747,33.55767 l 32.33183,32.34331 -3.4019,2.59476 c -1.87105,1.42711 -6.08292,3.84981 -9.35971,5.38377 -5.33932,2.49949 -7.04783,2.78808 -16.45781,2.77997 -17.6474,-0.0152 -17.52531,0.0673 -55.17412,-37.28334 -17.95593,-17.81372 -32.24837,-31.23198 -33,-30.9816 -1.05973,0.35301 -1.3787,7.30009 -1.58901,34.60862 l -0.26313,34.16696 -3.23687,-0.0326 c -1.78028,-0.018 -5.49275,-0.81271 -8.24993,-1.76612 z m 233.80183,0.51602 c -0.43382,-0.66949 -1.54221,-5.94225 -2.46308,-11.71725 -0.92086,-5.775 -2.36472,-14.09614 -3.20857,-18.49143 -0.84384,-4.39529 -1.2154,-8.25062 -0.82569,-8.56741 0.38971,-0.31679 3.63357,-1.14069 7.20857,-1.8309 25.02061,-4.83059 44.96527,-28.83158 44.96527,-54.11026 0,-17.693148 -10.29738,-36.388343 -25.65912,-46.584884 -16.17073,-10.733523 -37.65129,-11.86151 -55.3256,-2.905259 -11.5683,5.862101 -22.06887,17.929217 -26.96701,30.990143 -3.06846,8.182057 -3.76624,21.66685 -1.59826,30.88672 4.90684,20.8676 22.95001,38.14421 43.6605,41.80559 3.53332,0.62465 6.7925,1.4527 7.24262,1.84011 0.45013,0.38741 0.11263,2.39356 -0.75,4.45811 -0.86262,2.06454 -1.5684,4.73376 -1.5684,5.93159 0,1.19784 -0.37886,2.60538 -0.84191,3.12788 -1.12019,1.264 -3.9845,12.57882 -4.92372,19.45 -0.6935,5.07361 -0.96997,5.52508 -3.56614,5.82347 -6.73818,0.77447 -28.31255,-7.45348 -39.66823,-15.12851 -18.52931,-12.52351 -33.30439,-33.43056 -39.1095,-55.34078 -2.60799,-9.84336 -3.56944,-29.02189 -1.97288,-39.35418 5.5735,-36.069389 31.57768,-66.254062 66.58238,-77.286335 49.88744,-15.722795 103.88106,11.897961 120.312,61.546337 15.26485,46.124818 -5.73695,96.059968 -49.34351,117.322108 -11.87589,5.79057 -30.62722,10.53097 -32.17972,8.13514 z"
       id="path4512"
       inkscape:connector-curvature="0" />
    <path
       style="fill:#1c1564"
       d="m 312.8407,278.23255 c -19.68404,-13.45789 -34.62804,-33.77131 -41.55301,-56.48311 -2.49163,-8.17181 -2.72672,-10.35339 -2.74125,-25.43836 -0.0187,-19.36441 1.50767,-26.53844 8.92516,-41.94997 10.19841,-21.18954 25.29404,-36.01887 47.03843,-46.20864 12.56075,-5.88617 21.72551,-7.98033 37.40261,-8.54657 29.48127,-1.06484 52.16058,7.85618 73,28.71491 14.18445,14.19758 22.19165,28.50523 26.63862,47.59909 2.62087,11.25323 2.37265,31.01833 -0.52609,41.89118 -4.57476,17.15934 -14.87334,34.19453 -28.69302,47.46198 -8.24079,7.91149 -22.31533,18.03802 -25.07045,18.03802 -1.37955,0 -14.34906,-18.80853 -14.34906,-20.80916 0,-0.57048 3.15568,-3.13514 7.01262,-5.69923 18.31991,-12.17905 30.42486,-28.15232 35.05552,-46.25805 3.73598,-14.60754 1.92321,-28.72148 -5.68128,-44.23356 -3.95148,-8.06045 -6.04408,-10.8791 -13.80968,-18.60107 -7.6465,-7.60353 -10.70947,-9.86964 -18.61484,-13.77202 -20.13681,-9.94026 -40.92594,-10.20388 -60.46234,-0.7667 -23.8437,11.51785 -38.68202,32.72928 -41.10073,58.75361 -2.23386,24.03547 15.12182,53.80773 39.34303,67.48979 2.33326,1.31802 4.24576,2.7369 4.25,3.15309 0.0171,1.68122 -15.60429,20.60494 -17.06424,20.67156 -0.86456,0.0395 -4.91456,-2.2136 -9,-5.00679 z m -103.78774,0.74761 c -0.85349,-1.02839 -1.08504,-24.62585 -0.89569,-91.27801 l 0.25537,-89.89107 h 14 14 v 91 91 l -13.10431,0.27801 c -10.21499,0.21671 -13.3581,-0.0278 -14.25537,-1.10893 z m 714.35968,-0.70817 C 903.21741,275.12384 885.138,265.61253 870.79795,250.59218 828.12253,205.89224 842.1617,132.70526 898.39571,106.72355 c 13.41867,-6.19981 21.27987,-7.8506 37.51693,-7.87829 10.74914,-0.0183 16.13007,0.4248 20.80152,1.71305 25.44668,7.01749 45.32434,22.41752 59.62504,46.19394 1.9654,3.26765 3.5734,6.24569 3.5734,6.61787 0,0.85893 -18.2673,12.94096 -19.566,12.94096 -0.53166,0 -2.42396,-2.43631 -4.20497,-5.41403 -10.50956,-17.57081 -27.98187,-31.51671 -45.22899,-36.10049 -11.75813,-3.12497 -31.04707,-1.0324 -42.16908,4.57473 -17.60036,8.87317 -31.60527,25.99868 -36.342,44.43979 -1.8211,7.08997 -2.04276,20.76928 -0.4618,28.5 0.61862,3.025 3.19284,9.73251 5.72049,14.90557 7.7421,15.84489 21.54667,27.97109 38.41747,33.74666 9.9197,3.39593 23.88645,4.22449 32.83492,1.9479 17.19434,-4.37443 34.87044,-16.94848 44.77363,-31.85013 1.37068,-2.0625 3.02752,-3.75 3.68187,-3.75 0.6544,0 4.90556,3.80698 9.44726,8.45997 l 8.2576,8.45996 -1.8302,3.11467 c -3.2798,5.58167 -15.65216,18.20504 -23.68238,24.16284 -9.63368,7.14743 -19.87431,12.1706 -30.26962,14.84765 -9.12536,2.35001 -26.97762,3.30328 -35.87816,1.91582 z M 14.912636,188.78117 V 99.25126 l 60.303318,0.27991 60.303326,0.27991 7.60473,3.75918 c 9.53548,4.71359 16.62274,12.18517 21.89215,23.0793 4.87537,10.07947 6.20957,16.75693 5.71339,28.5948 -0.4517,10.7768 -2.58241,16.63773 -9.77764,26.89524 -2.2216,3.1671 -4.03927,6.34999 -4.03927,7.07308 0,0.72309 2.20863,4.61689 4.90807,8.65289 6.95738,10.40214 9.09521,16.69825 9.07715,26.73302 -0.044,24.44816 -13.79884,45.55927 -33.68605,51.7018 -6.20371,1.91614 -9.23237,2.01069 -64.404509,2.01069 H 14.912636 Z m 116.482334,63.09314 c 7.78288,-4.56108 12.70743,-14.51128 12.8992,-26.06323 0.0995,-5.99592 -0.30389,-7.75857 -2.81249,-12.2884 -1.61079,-2.90862 -4.86272,-7.07112 -7.22653,-9.25 l -4.29782,-3.9616 H 111.90325 93.849165 l 0.281736,-11.75 0.281735,-11.75 18.684224,-0.27182 18.68423,-0.27183 4.019,-4.56582 c 6.26867,-7.12159 8.62489,-12.75116 8.54195,-20.40878 -0.11549,-10.66337 -6.50648,-22.14324 -14.9294,-26.81707 -2.63587,-1.46263 -8.00315,-1.70123 -44.220192,-1.96582 -28.300169,-0.20675 -41.85641,0.0394 -43.25,0.78519 -2.00744,1.07434 -2.029812,1.79499 -2.029812,65.38447 0,35.36398 0.3,64.59815 0.666667,64.96481 0.366666,0.36667 20.01463,0.66667 43.662142,0.66667 h 42.995475 z m 407.50236,-49.81323 c -0.009,-46.25263 -0.38798,-76.84011 -0.96258,-77.75 -0.80147,-1.26914 -5.64723,-1.54486 -31.48469,-1.79149 L 475.91264,122.2281 V 110.76959 99.31108 h 76 76 v 11.45907 11.45907 l -31.0374,0.29093 c -26.28243,0.24636 -31.18253,0.52073 -31.98469,1.79093 -0.57463,0.90991 -0.95331,31.49614 -0.9626,77.75 l -0.0153,76.25 h -12.5 -12.5 l -0.0153,-76.25 z m 132.01531,-13.25 v -89.5 h 67 67 v 11.5 11.5 h -51.9349 c -31.4252,0 -52.95077,0.38623 -54.5073,0.97803 l -2.5724,0.97802 0.2573,64.77198 0.2573,64.77197 54.25,0.25861 54.25,0.25861 v 11.99139 11.99139 h -67 -67 z m 390.99996,0.0308 V 99.3111 h 12.5054 12.5053 l -0.2553,89.25 -0.2554,89.25 -12.25,0.28078 -12.25,0.28078 z m 159.7088,88.84474 c -0.3898,-0.38987 -0.7088,-1.76376 -0.7088,-3.05309 0,-3.24642 -3.6035,-10.60128 -6.5505,-13.36986 -1.4936,-1.40319 -2.4495,-3.41895 -2.4495,-5.16552 0,-1.98124 -1.2332,-4.14773 -4,-7.02713 -3.3007,-3.43501 -4.0056,-4.87064 -4.0318,-8.21137 -0.017,-2.2267 -0.6925,-4.92206 -1.5,-5.98968 -1.9577,-2.58826 -1.8666,-7.98331 0.1631,-9.66787 1.3873,-1.15131 1.5336,-2.74522 0.9777,-10.65317 l -0.6537,-9.29929 3.5224,-4.61307 c 1.9372,-2.53719 3.5201,-5.11086 3.5173,-5.71927 0,-0.60841 -1.0963,-2.4562 -2.4302,-4.1062 -2.1882,-2.70671 -2.6372,-2.87102 -4.5924,-1.68071 -1.192,0.72561 -2.267,1.17561 -2.3891,1 -0.1221,-0.17561 -1.1962,-2.0206 -2.387,-4.09998 l -2.1651,-3.78069 2.4844,-0.94456 2.4844,-0.94456 V 139.83585 99.3111 h 13.0054 13.0053 l -0.2553,89.25 c -0.2547,88.99198 -0.2613,89.25084 -2.2966,89.54218 -1.1226,0.1607 -2.3601,-0.0268 -2.75,-0.41666 z M 716.91264,193.31108 v -12.02125 l 43.25,0.26063 43.25,0.26062 v 11.5 11.5 l -43.25,0.26062 -43.25,0.26063 z m 389.21826,0.25 0.2817,-11.75 h 32.483 32.4831 l 0.7104,4 c 0.3907,2.2 0.4462,7.4875 0.1232,11.75 l -0.5873,7.75 h -32.8879 -32.888 z"
       id="path4510"
       inkscape:connector-curvature="0" />
  </g>
</svg>
